<svg xmlns="http://www.w3.org/2000/svg" fill="none" viewBox="0 0 351 314">
  <path fill="#111066" d="M351 7v3h-2v1l-1 1v-1h1-1l-3 1h-1v-2h1v1-1l-1-1-2-1-1 2 1 1v1h2l-1 1-1 1-3 1v-2l-1-1v-2l-6 2-1 1v1h-3l-1 1v1l-1 1-1 1-2 1-3 2h-1l-4 1v1l-1-2h-2v1l-2-1-2 2h-1l-2 1v-1h1l2-1-2-1h-2l-1 1h1l-1 1-1-1v-1h-1l-1 2h-2v1h-1v1h1-4 1-4l-2 2h-1l-1 1-1-1 1-1-2 2h-1c-1-1-1-1-2 1l-1-1 1-1h-1v1l-1 1h-2v-1l-2 1v1c-1 2-1 2-3 2v1l-2-1h-2l-2 1h-2l-2 1h-1l-1 1h-2v1-2h-2v2l-1 1h2l-2 1v1-2h-1l-1 1-1-1-1-1-1 1-1 1-1-1v1l-1 1v-1h-1l-1 1-1 1-1-1v-2h-2l-1 1v2l-1 1v-2h-2l1 1v2l-1-1v-1l-1 2v1l-1-1-1-1v-1h-1v1l-1-2-1 1-1 1-4-1-2 1h-2l1 1h-1l-1 2v-1h-1l-1-1h-1l-1 3h-1l-1 1h-3l-1 1v-2h1v1l1-2-3-1v1l-2 2v1l-1-3h-1v1l-1-1-1 1h-3v1l-1-2h-1v2l-1 1-1-1v2l1 1 1 1h-1v1l-1 1-1-1v-1h-2v-1l-1 1v2l1-1 1 2-1 1h1v1l-1 1-1 1 2-1h1v1l-2 1 1 2 1 2 1 2-1 1h-2v2l1-1v1l2 1v-1l1 1v1h-1l-1 2 1 3-1-2v3l-1 2-1-1h-1v1l1 1c-2 0-2 1-1 2l-1 2v2l1 3v2l-1 2v2-2h-4l-1 1h-1v1l1 1h1l-1 2v1h2l1-1v4h-1v1l-1-1v-2h-2v-1h-1l-1 1v-2l1 1v-1l-1 1v2l1-1 1 2-2 1 1 1h-2v-4 1l-1 1h-1v1h-2l2 1v1h-1l-1 1h-1l1 2h-2v2l-2-1-1 1v3l-1 1 3-1 1 1-1 2-2-2 1 1-1 1h2l1 1-1 1h-1v2l-1 1-2-1v1h1l-1 1v1h-1v-1h-1v2h1v1l1 3v-1l-2 1h-1v4h1l-2 1-1 1h1-1v1l1 1-1 1h-1v3l-1 2v1h1l-2 2h2l-1 1 1 1h-3v1h1v1l1 1v1h-2l-2 2h-1 3c-1-1 0-1 1-1v-1 1h1l1-1v-1l-1-1 1-1 1-1 1 1v-2h1l1 2 1 1 2 1v2h2l-1 2v1l1 1-1 1 1 1 1 4-1 2h-1v-1l-1 1v-1l-1 1h1l-1 1h1v3l1 1-1-1-1-1v1h-1v2c2-1 2 0 3 1l1-1v-1l1-2 1 3-1 1v2h-4l1 1h1l1 1-1-1-2 1v-3h-1v4l-3 1h3v2l-1 2h1-1l-1 1v1h1v1h-1v2h2v2-1h-1v2l-1 3v2h-1v-1l-1-1h1l1-1v-3h-4v1l-1 2v-2h-1v1-2h2l1-1-2-1v1h-1v-1h-2v1h2-1v1l-1-1v1l1 1-2-1h-1v2h-1v-1l-1-1-1-1v2h-1v-1l-1 1v1h-1v1l-1-1h-1l1 1 2 1h-1v1h-1l-1-1-1 1v1l2 3h-1l2 1v2h-2v1l-1 2v-1l-1-1 1-1h1v-1l-1 1-1-1h1c1-1 0-1-1-2l-1 1v5l-1 1h-1v-1a27 27 0 0 0-2 2v2l1 2v-1h-3l-2 3h-1v2h-1v1l1 1h2l2-2 1 1-2 2h-4v2l-1-1v2h-1l1 2v3h-1 2v-2l1 1h1l-1-3h1v1l1 1h3l-1 1h2l-1 1h-1v2l-1 1v-2h-1c0-1 0-1 0 0l-2-1v2h1v-1h1l1 3 2-1 1 1h-1v2h-2 1v2h3v1h1l1-1 1-1v-2l1-1 1-1-1-2h-1v-2l1 1c2 1 3 2 2 4h-1v2l-1 3-1 1-1 1-1 1-1 2v-1l-1-1v5l-2 1-1 2-2 3-1 1h-1v2l-3 3-1-1-1-2-1 1v1l-1 1-2-1v-1l-2 1-1-1v2l2-1v1h-2v1h1l1 1 1-1 2 1h-2l1 1-2 2h-2l-3 1 1-2 1-1 1 2-1-2v-1h-1l-1-1v1l-2-1 1-1 1-2-2 1c1 1 0 1-1 1l-1 2v2l-1 1h1v2h2l-2 2-2-2v2h1l-1 1v-1l-3 3h-2v2l1 2v2l-2 1 2 2-2 1v1l-1 1h-2l-1 1v-1l-1-1v-1l-1-1v3l1 1v1-1h-2v1-1l-1-1-1-1h2v-5l-2-1-2 2 1-1h-2l-1 1-1 3-2 2h-1a17 17 0 0 1-3 2v1l-2 1v2h2v1h-3l-1 1h-1l-2 1-6 1-3 1-2 1h-7l-5 1h-2c-2 1-3 1-3-1l-1-1h-8l-3 1h-5l-1-1-3-1-2-1h-1l-2-1h-2c-2 0-3 0-4-2a37 37 0 0 0-5-7h-1v-1l-1-2-4-5v-1l-3-4-2-3-1-1v-2l-1-2v-1l-1-2-1-2a180 180 0 0 0-3-13v-3l-1-5v-16l1-2v-2a81 81 0 0 0 1-4v-5l1-2a197 197 0 0 1 2-10v-2l1-3a71 71 0 0 0 3-8l1-1v-1l1-2 2-4v-1l1-1v-2l1-1 1-2v-1l1-1 1-2a6224 6224 0 0 1 8-17c0-1 0-2 2-3v-1l1-1 1-1 2-5 2-3h1l1-3 2-3v-1a11 11 0 0 0 2-3l1-1 1-2 3-3 1-1 1-1 4-7 2-1 2-2 2-2 1-1 2-3v-1l1-1a59 59 0 0 0 3-4 76 76 0 0 1 5-5h1l2-1h2v1l-1 2-1 2-1 2-1 2c-1 1-2 2-1 4l-1 1v2h1v5l-2 1 1 2v-1l1-1-1 2v2l1 3-1 4-1 5-2 3-1 2v1l-1 1 1 1 2-1 1 2v2l-1 1v3h-1l-1 2 1 1h-3 1l-1-2h-2l-1 2-1 1h1l-1 1-1 1v1l-1 1v1l-1 1v1l-1 1h3l1 1h-5l-2-2v4h2v-1h2l-1 1-2 1 1 1v3h-1v1h-2v1l1 1v1l-2-2-1 2v1h-1v1l-1 1v1-1h-1v2l-2 1v1h-1l-1 4h1v1l-1 1-1 4h-1v4h-1v1h1l-1 1v1l-1 1h-1v3h-1v2l1 2h-1v3l-2 1v5l1 1h-3l1 2v1a2 2 0 0 1 0 1h-1v1l-1 1v3l1 2-1 2h-2l2 1v2h-1v-1 3l1 1-1 1-1 3v2l2-1 1 2a2081 2081 0 0 0 0 1h-1l1 1-1 1v1h1v-1h1v2h1v4h1v1h-1l1 1v1h-1v2l1 1-1 1 2-1-1 1v3h1-1v1l1 2-1 1v2h-1l1 1 1-1h1v3h-1 1l1 1 2 1v2l2-1 1 1 1-1h1l-1 2v3l2 1 1 2-1 1h1l-1 1h-1 1v1h2v-2l-1-2h2l-2-1h3l-1 1h2l1 1-1 1 1-1h1l1 1 1-1v2l1 1h4a87 87 0 0 1 7-6l1-3 2-2 1-1 3-3a193 193 0 0 1 6-7l1-1a9 9 0 0 0 3-3l3-3 5-6a53 53 0 0 1 2-4l2-3a70 70 0 0 1 4-6 54 54 0 0 1 2-4l1-1v-1l2-2 2-5a35 35 0 0 0 6-8v-1a50 50 0 0 1 3-5l1-1 1-2v-1l2-3v-2l2-3v-1l1-1v-4l2-2v-3l2-6v-1l1-2v-1l1-4a608 608 0 0 0 2-6l1-2a83 83 0 0 1 1-5l1-1v-2l1-2 1-3v-4l1-4a111 111 0 0 1 4-14 75 75 0 0 0 3-11l1-2 1-3 1-3v-1a63 63 0 0 0 3-11v-2l1-3a132 132 0 0 0 2-11h-2l-1-1h-4v-1c-1 1-2 0-2-1l-1-1v2h-1l-1-1-1 2h-3l-2 1h-4l-2 1-2-1v1h-4v1h-1l-1 1h-3c-2 0-2-1-2-2h-1l-1 2-2 1-1-1-1 1-1 1v-2h-1v1l-1 1h1v1l-1 1h-1l-1 1v2-2l-1-2-2 2h1l-1 1h-3l-1 1h-7l-1-1v2h-1l-1-1-2-1-2 2-1-2h-2l-3-1h-1l-1-1h-1a23 23 0 0 0-7-3 70 70 0 0 0-7-3l-2-2a6 6 0 0 0-2-1l-1-1-2-1 1-1v-2l1-2 1-1a62 62 0 0 0 3-1 29 29 0 0 0 7-3l1-1 2-1h2a38 38 0 0 1 6-2 69 69 0 0 1 6-2 82 82 0 0 0 10-3 79 79 0 0 1 8-2 12181 12181 0 0 0 18-3h2a144 144 0 0 1 7-2l4-1 2-1h3a143 143 0 0 1 19-3 63 63 0 0 1 14-3 149 149 0 0 0 19-4 81 81 0 0 0 4-1 113 113 0 0 1 18-3l6-1h4l2-1a21 21 0 0 1 5-1l3-1h13l3-1h3l2-1h2a21 21 0 0 1 4 0h4l3-1h2l2-1h2l8-1h2l6-1a55 55 0 0 1 11-2h2l8-1h5l2-2h3l2 1 2 1h8a59 59 0 0 1 11 1h5l2 1 2 2ZM92 72v-1 1Zm11-4v-1 1h-1 1Zm37-8-1-2v2h1Zm-88 88v1l1-1v-1l-1 1Zm10-19h-1v1h1v-1Zm-8 12-1 1 1-1Zm-3 2v2-2Zm-10 26v1-1Zm-7 20v-1l-2-1 2 2Zm-1-3-1 1h1l1-1-1-1v1Zm-1 4v-1h-1l1 1Zm-1 0-1 2 1-2Zm-2 2v1h2l-2-1Zm2 8-2 1 1 1 1-2Zm2 48h1-1Zm1-4v-1 1Zm8 16v-1 1Zm1-2Zm1 7-1-1v1h1Zm59 3h-1v-1l1 1Zm0-1h1-1Zm7-5-1 1h1v-1Zm-1-1-1 1 1-1Zm0 2-2 1 2 1v-2Zm1 6v-2l-3-2-1 1v1l1 1-2 1 1 1v-2l1 1 1-1h1v5-2l1-1v-1Zm1 1-1-1 1 1Zm0-1 1-1-1 1Zm1-11v-1 1Zm3 0v-2h-1v1l1 1Zm3-4 1-1v-1l-1 2Zm2-3v-1 1Zm8-3 1-1v-1l-1 2Zm14-26h1-1Zm-7 1h-2 2Zm1 15-1-2-1 1h-1v2l1-1 1 1 1-1Zm-3-13v1-1Zm-1 23h1v-1l-1-1-1 1h-1l1 1v2h1l1-1h-1v-1Zm2-2 1 1h1l-1-1h-1Zm2 1 1-2v1l-1 1Zm3-4h2l-1-1h-1v-1h1v-1h1v1h1v-1l-1-1h-1l-1-2v-3 1l-1 1-1 1 1 1-2 1-1 1v1h-2l1 1h1l1 1 1 1h1l1 1v-2Zm-3-11h2-2Zm2 4-1-1v1h1Zm0-4v1l1 1v-1l-1-1Zm3 10h1-1Zm1-4v-1h-2v1l1-1 1 2v-1Zm4-7v3-3Zm-4-2h1-1Zm2 2-2 1v1l1-1 1 1 1 1v-3h-1Zm-1 2h-4l1 1v1l2-1h-1v1l1 1h1l1 1h-1v1l1 1 1-2v-1l-1-1-1-1v-1Zm-5-8-1-1-1 1v1l1 1v-1l1 2 1 1v-1h1l-1 2h-1 2v-3l-1-1 1-1h-2Zm-1-5v-1 1h-2l1 3v-3h1Zm5-14v-1h-1v1h1Zm6-5v-1 1Zm27-41v-1 1Zm-14 25v-1l1-1-1 1v1Zm2-7h1-1Zm0-21 1-1-1 1Zm3 14 1-2-1 2Zm0-6 1 1v-1h-1Zm2 20h1l-1-1v1Zm1-5-1-2h-2l1 2 1-1v-1l1 2Zm2-3v1l1-1h-1Zm-1-1-2 1h1l1-1Zm1-3-1-2v-1l-1 3v-1l-1-1h1-1l-1 1h1v1h1v1h-1l1-1h1v-1l1 1Zm0-9v-1l-3 1 1 1 2-1Zm-1-4h1-1Zm4-7v1-1Zm-6-5v1-1Zm2 10-1-1h-1 1v2h2l2 1v-1l1-1h-1v-2h1v-1l-1-1h-1v1h-1l-1-2-1 1v2h1v2Zm-2 2-1-1 1 1Zm-1-7h-2l1 1h1v-1Zm-2 26-1 2h1l1-2h-1Zm-1-24v-1 1Zm-2-2h-2v2l4-2-1-1-1 1v1-1Zm-2-5h2-2Zm7-19h-1l1 1v1-2Zm0 8v-1l-1 1h1Zm1-16h1-1Zm1 9v-1 1Zm5-23-1-1v1h1Zm2-10v2h1v-1l-1-1Zm0 9h1v-1l-1 1Zm2-3v-3h-1l-1 1v1l1-1h1v2Zm5-6v-1h-1l-1 1-1-1 2-2h-1l-1-1v1l-1 1v1l-1 1h1v2h1l2-1v-1h1Zm2-7h1v-1l-1 1Zm2 0 1-1-1 1Zm4 0v-1h-2v1h2Zm1-9v-1h-1l1 1Zm3-8h-1v1l1 1 1-3h-1v1Zm-1-18-1 1h1v-1Zm43-15 1-2h-2l1 2Zm18-4v-2l-1 1v1l1-1v1Zm86-24h-1v-1h-1l1 1 1 1v-1ZM161 209l1-1v2c-2 0-2 1-2 2l-1 2-1 1v1c-1-1-2-2-1-3l-2-1 1-1h2l1 1v-1l-1-1 1 1h1l-1-1h-2l-1-1h2l1-1v-1h1v1l1 1Zm-1-1v1-1Zm-10 6-1 2h1v2l-1 1 1-1-2-1h-1l-3-1 1-1v-1h1v2h2v-3l1 1 1-2v2h1v2l-1 1v-3ZM49 161l1 1h-1v1l-1 1v1h-2v-5h1v1h1v-2l1 2Zm15-18-2-1v-1l-1-2v1h1l1-4 1 2v5Zm104 47 1 1-1 1v1l-1 1 1 1-2-1v2h-1v-3l1-3v1l1-1h1Zm-2 3 1-1v-1l-1 1v1Zm-10 23 1 1-1 2v-2l-1-1h-2v-2l1 1v-1l1-1h1v2h-1 1v1Zm-96-68-3 2-1-1 1-1 1-1h-1v-2l3 3ZM202 47l1 1-1 2v2-1h-1v-3l1-1Zm-57 164v-1h2v-1l1 1 1-1 2 1-3 1v1h-1v-2l-1 1h-1Zm46-119v1l1 2v1l-2-2v-2a219 219 0 0 1 1 0Zm-48 124v2l-2-2h1v1-2l1 1Zm97-174h1v-1l1-1v1l-1 2h-1v-1Zm-85 153v-2h1l2 2h-2v1l-1-1Zm17-50-2-1v-1l-1-1h1v1l1 1 1 1Zm-18 72 1 2 1 1-1 1v-2l-1-2Zm89-178 1 1v2h-2l1-1v-2Zm-84 152h2l1-1v1h-1l-1 1-1-1ZM53 259h-2v-1l1-1v1l1 1Zm132-157v2l-1 1v-2l1-1Zm-1 1Zm78-67 1-1h1l-1 2h-2l1-1Zm-84 79 1 1 1 1h-1v-1l-1-1Zm-23 77v1l-2 1-1-2 2 1 1-1Zm-97-48 1-1h1v1h-3 1Zm99 52 2-1h1v1l-1 1-2-1Zm19-87h2l-1 1h-1v-1Zm-12 93v2h-1v-2l-1-1 2 1Zm-16 2 1 1h-2l1-1Zm21-17-2 2-1-2h3Zm-20 38v-1h-1l-1-1h2l1 1-1 1Zm16-35-1 1h-1l1-1 1-1v1Zm-6 13h-1l-1-1h2v1Zm13-61h-1v-2h2l-1 1v1Zm-11 60-1-1v-1h1v2Zm-8 21 1-2v2h-1Zm2-14-1-1 1-1 1 2h-1Zm-4 8h2l1 1h-3v-1Zm-85-82h-3v-1h1l2 1ZM291 26v1h-2l2-1Zm-112 93h-1v-3a22 22 0 0 0 1 3Zm2 3v-1h1l1 1h-2Zm9-18v3h-1v-1l1-2ZM90 76h-2l1-1v-1l1 1v1Zm70 120 2-4-2 4Zm18-70h2v1h-1l-1-1Zm-16 62-2 2v-1l1-1v-1l1 1Zm-4 19-2 1v-1h2Zm-54 65h-1l-1-1h2v1Zm30-22 1 1h-1v-1Zm45-143 1 1v1l-1-2Zm-38 104v-1h1v1h-1Zm-90-46v-2 2Zm47 114h1-2 1Zm-62-44h1v1h-2l1-1Zm11 22-1-1v-1l1 2Zm111-63-1-2 1 1h1l-1 1Zm34-87v1l-2 1 2-2ZM61 138l-2 1 1-1h1Zm87 82h-1v-2l1 2Zm-1-12s1 0 0 0v1h-1l1-1Zm-24 47h2-2Zm57-134h-2l1-1 1 1Zm-34 106 1 2-1-2Zm-5-11c-1-1 0-1 1-1l-1 1Zm57-149v-2l1 1h-1v1ZM53 154h1v1l-1-1Zm-7 13v1-1Zm103 39h-2 2Zm54-158 1-2v1l-1 1Zm-26 115-1 2 1-2Zm-26 47 1 1h-1v-1ZM302 24l-2-1 2 1Zm-120 81v1h-1l1-1Zm-32 98h1v-1l-1 1ZM37 183h1l-1 1v-1ZM202 52l-1 1 1-1Zm-44 153h-1 1ZM292 27h1v1h-1v-1ZM156 190v-1 1Zm29-75 1-1-1 1Zm7-15v-1 1Zm-33 90v1-1ZM47 258h-1v-1h1v1ZM277 32v-2 2ZM162 196v1-1ZM342 9v1-1ZM192 95l1-1v1h-1Zm-35 115v1h-1l1-1ZM51 152h2-2Zm-18 70h1v1l-1-1ZM204 46h1-1Zm65-12v-1l1 1h-1ZM56 148v-1h1l-1 1Zm70-84v1h-2l1-1h1Zm56 48v-1 1Zm-27 85-1 1 1-1Zm12-56h1v1h-1v-1Zm-18 79h1-1Zm-2 5 1 1-1-1Zm5-10h1v1l-1 1v-2Zm0-1v1-1ZM337 13l1 1h-1v-1Zm-70 23v-1l1 1h-1ZM131 251v1-1Zm35-53v1-1Zm14-93h1v1l-1-1Zm-26 96h-2 2Zm29-98v-1h1v1h-1Zm1 0Zm88-68v-1 1Zm-73 28h-1 1Zm-28 67h1-1ZM294 27h1-1ZM51 161v1-1Zm124 3v-1 1Zm-35 56v-2 2Zm7-16h-1v-1l1 1Zm-89-63h1l-1 1v-1Zm114-2h-1 1Zm-9 53v1h-1l1-1Zm27-90h1-1Zm-38 111v-1l1 1h-1Zm-121 1h1-1Zm158-112v1-1Zm-3-1v1-1Zm-79-23h-1 1Zm58 122v-1h1l-1 1Zm-12 6h1-1Zm4-19v1h-1v-1h1Zm19-65v1-1ZM43 171ZM198 56v1-1Zm-19 69h1-1Zm-7 12v-1l1 1h-1Zm9-13Zm-20 72v1h-1v-1h1Zm-12 6v1-1Zm5 3v1-1Zm-95-65v-1h1v1h-1Zm78 99v2-2Zm2 4-1-1 1 1ZM304 43v8l-1 5-1 1-1 4v2l-1 2-1 5v1h-1v2l-1 2v2l-1 1-5 9-2 4-2 4-1 1a26 26 0 0 0-2 3v1l-2 3-2 3-3 2-2 1h-2l-5 3h-6l-2-1-1-1-1-1h-1a5 5 0 0 1 0-2l-1-1v-1l-1-1 1-3 1-3a52 52 0 0 1 4-6l3-6a187 187 0 0 1 9-20 37 37 0 0 0 2-4l2-5a61 61 0 0 1 2-5l2-4V37a113 113 0 0 0-5-9h-2v1h-2a16 16 0 0 1-3 3h-1v1a16 16 0 0 0-5 3l-1 2h-1l-2 2-1 1-2 1-1 1-1 1-1 1-1 1h-1l-1 1-1 1-1 1-2 2a33 33 0 0 0-4 3l-2 2-1 1-1 1-2 2-1 1-1 1-1 1-2 2-1 2-1 1-2 3-2 1-1 2v1h-1l-2 5-2 3v17l1 2 1 2 1 3 1 1v1l1 2 2 2 3 4 1 1v1l2 2 3 3a32 32 0 0 1 4 6 38 38 0 0 0 3 3h1l2 2 3 3 2 2 3 3 2 1 1 1 3 3 1 1 1 1 5 4 1 1v1h1v1h1a29 29 0 0 1 5 6l1 2 1 2a50 50 0 0 1 2 2l1 2 1 3 1 3a352 352 0 0 1 6 13 34 34 0 0 1 1 8v4l-1 3v6l-1 3-2 2-3 4-2 2-4 3h-1l-2 1-2 1-2 1h-1l-3 1h-3l-2 1h-5a29 29 0 0 1-3 2l-3 1h-1l-2 1h-2l-3 1-1 1-2 1-2 1-2 1h-1l-3 2h-1v1h-1l-2 1-1 1-2 1h-2l-2 2h-1a46 46 0 0 1-3 2l-3 1h-1v1l-2 2v-2h1-1l-2 1 1-1 1-1h-3l-1 1a9 9 0 0 1-2 2h-1v1h-1v-1l-2 1-3 1v1l-1 1h-1l-1 1-2 1-1 1-1 1h-1l-1 1-1 1h-1l-1 1h-2l-1 1v1l-1 1h-1l-1 1h-3v1l-1 1-1 1-4 3-2 1-1 1h-1l1-2 1-1h1-1v-2h1l1-1v-1h1v-1l-2 1h1l-1 1-1 1v-1h1v-1l-1 1-1 1h-2v1-3l-1 1h-1 1v1h-1l-1 1h-1l-2 1v1l4-3v3-1h-1v1h-2l-1 1v-1l-2 1h-1v1l-1 1a37 37 0 0 1-1 1l-1-1a419 419 0 0 1-3 2v2c-1-1-2 0-2 1h-1 2l-1 1h-2l-2 1-1 1v-1l1-2a32 32 0 0 0-6 5l-2 1-1 1v1l-1-1-1 1-1 1a75 75 0 0 0-9 6l-1 1h-1 1v-1l2-1 1-1a91 91 0 0 0 8-6l2-2 1-1a110 110 0 0 0 11-9l1-1 1-1 5-5 4-3 2-2 2-1 1-1 1-1a80 80 0 0 0 5-4 239 239 0 0 0 10-7v-1l4-2a283 283 0 0 1 33-22v-1l3-2 6-3 7-5 5-3a108 108 0 0 0 12-8l2-6a41 41 0 0 0-4-22l-3-4-1-2v-1a159 159 0 0 0-13-12l-3-4a95 95 0 0 0-7-9l-3-3-3-3-2-3-2-2a216 216 0 0 1-12-20l-1-2-1-2-1-2a47 47 0 0 1-1-28v-1l1-2v-1l2-4a65 65 0 0 0 3-6l2-6 2-2 1-2 2-2 2-3 2-2 2-2 3-4a34 34 0 0 1 3-3v-1h1a53 53 0 0 1 9-9l2-1a29 29 0 0 1 4-4l1-1a41 41 0 0 0 9-6l2-2 2-1 2-4 2-1a79 79 0 0 1 6-5l2-1 1-1h1a43 43 0 0 1 7 1l1-1 2 1v1h4l1 2 2 1h1l1 1a940 940 0 0 1 10 7h1l1 1 2 1v1h1l2 4 1 1 2 3a37 37 0 0 1 2 4v5l1 4 1 4ZM143 283v-1 1Zm28-16 1-1h-1v1l-1 1 1-1v1-1Zm2 0v-1h1l-1-1v1h-1l1 1Zm1-3h2l-1-1-1 1Zm27-12 1-1-1 1Zm-87 49h1l-1 2-4 2-1 1a82 82 0 0 1-1 0h-1 2v-1l1-1c2 0 3-1 4-3Zm83-46h1v1h-1l-1 1h-1v-1h1l1-1Zm-94 55v-1h1l2-1-3 2Zm24-16 2-2v1l-1 1h-1Zm39-21h-2 2Zm26-14 1-1-1 1Zm-29 18 1-1-1 1Zm-7-2-1 1 1-1Zm-55 38h2-2Zm6-7v1-1Zm26-16h1-1Zm-18 11 1-1v1h-1Zm46-28 1-1v1h-1Zm-24 15Zm-31 19c0 1 0 1 0 0Zm84-47v1-1Zm-65 35h1-1Z"/>
</svg>