<svg xmlns="http://www.w3.org/2000/svg" viewBox="0 0 376 148">
  <defs>
    <linearGradient id="a" x1="0%" x2="100%" y1="-96.3%" y2="-96.3%">
      <stop offset="0%" stop-color="#593D09"/>
      <stop offset="100%" stop-color="#7F5200"/>
    </linearGradient>
    <linearGradient id="b" x1="0%" x2="100%" y1="-96.4%" y2="-96.4%">
      <stop offset="0%" stop-color="#563B09"/>
      <stop offset="100%" stop-color="#291D04"/>
    </linearGradient>
  </defs>
  <g fill="none" fill-rule="evenodd">
    <path fill="url(#a)" d="M273 0c-4 0-8 1-10 4-3-2-5-2-8-2-9 0-17 6-17 14l1 5a14 14 0 0 0-4 13l-4 2-6 5-4 2c-3-6-8-11-14-12-3-2-7-4-11-4s-8 1-11 4c-2-2-6-3-9-3-10 0-17 8-18 19l-6-1c-5 0-10 3-14 8h-11c-3-6-9-10-16-10s-14 5-17 13c-2-7-9-12-16-12-6 0-11 3-14 7l-7-2c-8 0-14 6-17 13l-9-2c-7 0-13 4-16 10l-4-1C5 70 0 76 0 83s5 12 11 12l5-1c1 4 4 7 8 8a16 16 0 0 0 16-2c1 6 5 10 10 10l2-1a17 17 0 0 0 15 1c1 2 4 3 7 3s6-2 8-5c4 8 16 14 30 15 2 3 5 6 9 6s7-2 9-5l4 3c0 6 5 10 10 10 3 0 6-1 8-3 1 4 5 7 10 7h3c7 4 16 7 26 7 14 0 25-5 31-12h2l7 1c7 0 13-4 16-9l1-1a18 18 0 0 0 7 0c2 3 5 6 9 6s8-3 10-7a19 19 0 0 0 11-2c2 2 5 3 8 3 4 0 8-3 9-8h5l6 2c5 0 9-3 10-7l9 2c6 0 12-3 15-8l6 1c9 0 16-7 16-15v-3l2-7c0-5-2-10-6-12v-4c0-9-7-15-16-15h-3l1-4c0-8-8-14-17-14h-1c-1-4-5-7-9-7l-4 1c-4-7-14-12-26-13v-1c0-8-8-15-17-15Zm42 55 2 3h-2v-3Zm-37 3h4l1 2-5-2Z"/>
    <path fill="url(#b)" d="M274 0c-4 0-8 2-11 4a18 18 0 0 0-12-2l8 7c12 2 20 11 20 22l-1 6c2 5 3 11 3 16 4 4 7 9 7 15 0 12-10 22-22 22l-2 1 2 7c0 12-13 21-29 21h-4c-2 11-17 18-34 18-6 0-12 0-17-2-3 4-8 6-13 8 6 3 14 5 22 5 14 0 26-5 31-12h3l7 1c7 0 13-4 15-9l1-1a18 18 0 0 0 7 0c2 4 5 6 9 6 5 0 8-3 10-7a19 19 0 0 0 12-2c2 2 4 3 7 3 4 0 8-3 10-8h5l6 2c4 0 8-3 10-7l8 2c7 0 12-3 15-8l6 1c9 0 17-7 17-15v-3l2-7c0-5-3-10-7-12l1-4c0-9-8-15-17-15h-2v-4c0-8-7-14-16-14h-1c-2-4-5-7-9-7l-5 1c-4-7-14-12-26-13v-1c0-8-7-15-16-15Zm41 55 3 4-3-1v-3Z"/>
    <path fill="#734B02" stroke="#000" stroke-width="1.1" d="m161 115 4 1c4 0 8 3 8 7l-1 3 2 5a8 8 0 0 1-9 7 8 8 0 0 1-8 0h-1a8 8 0 0 1-7-10l-1-5a8 8 0 0 1 9-7l4-1Z"/>
    <path fill="#3B2906" d="m163 117 4 1c4 0 8 3 8 7v1l-1 3 2 4a8 8 0 0 1-9 7 8 8 0 0 1-8 0l-1 1a8 8 0 0 1-7-11l-1-4a8 8 0 0 1 9-8l4-1Z"/>
    <path fill="#734B02" stroke="#000" stroke-width="1.1" d="m245 114 3 1h1c4 0 7 3 7 7v1l-1 3 2 4a8 8 0 0 1-9 7 8 8 0 0 1-8 1h-1a8 8 0 0 1-6-11l-2-4a8 8 0 0 1 9-8l5-1Z"/>
    <path fill="#3B2906" d="m246 117 4 1c4 0 8 3 8 7l-1 3 2 4v1a8 8 0 0 1-9 7 8 8 0 0 1-8 0h-1a8 8 0 0 1-7-11l-1-4a8 8 0 0 1 9-7l4-1Z"/>
    <path fill="#734B02" stroke="#000" stroke-width="1.6" d="m353 68 7 1c6 0 11 5 11 11v1l-1 5c2 1 2 4 2 6v1a12 12 0 0 1-13 11 12 12 0 0 1-13 0 12 12 0 0 1-11-17l-2-6a12 12 0 0 1 14-11c2-2 4-2 6-2Z"/>
    <path fill="#3B2906" d="m356 71 6 2h1c6 0 11 5 11 11v1l-1 4 2 7a12 12 0 0 1-13 11 12 12 0 0 1-13 0 12 12 0 0 1-11-16l-2-6a12 12 0 0 1 14-12l6-2Z"/>
    <path fill="#734B02" stroke="#000" stroke-width="1.1" d="m303 47 4 1h1c4 0 7 4 7 8v4l1 4a8 8 0 0 1-9 8 8 8 0 0 1-9 0 8 8 0 0 1-7-11l-2-5a8 8 0 0 1 10-8l4-1Z"/>
    <path fill="#3B2906" d="m307 51 4 2c4 0 8 3 8 7l-1 4 2 4v1a8 8 0 0 1-9 7 8 8 0 0 1-9 0 8 8 0 0 1-8-11l-1-5a8 8 0 0 1 9-7l5-2Z" opacity=".8"/>
    <path fill="#734B02" stroke="#000" stroke-width="1.1" d="m31 81 4 1h1c4 0 7 3 7 7l-1 3 2 4v1a8 8 0 0 1-9 7 8 8 0 0 1-8 0h-1a8 8 0 0 1-6-11l-2-4a8 8 0 0 1 9-7l4-1Z"/>
    <path fill="#3B2906" d="m33 83 4 1c4 0 8 3 8 7v1l-1 3 2 4a8 8 0 0 1-9 7 8 8 0 0 1-8 0h-1a8 8 0 0 1-7-10l-1-4a8 8 0 0 1 9-8l4-1Z"/>
    <path fill="#734B02" stroke="#000" stroke-width="1.1" d="m109 86 4 1c4 0 7 3 7 7v3l1 5a8 8 0 0 1-9 7 8 8 0 0 1-8 0 8 8 0 0 1-7-11l-2-4a8 8 0 0 1 9-7l5-1Z"/>
    <path fill="#3B2906" fill-opacity=".5" d="m111 88 4 1c4 0 7 3 7 7v1l-1 3 2 4a8 8 0 0 1-9 7 8 8 0 0 1-8 0h-1a8 8 0 0 1-6-10l-2-4a8 8 0 0 1 9-8l5-1Z"/>
    <path fill="#734B02" stroke="#000" stroke-width=".8" d="m273 76 4 1c4 0 8 2 8 4v1l-1 2 1 2v1c0 2-3 4-7 4h-1l-5 1-4-1c-4 0-8-2-8-5l1-2-1-2c0-3 3-5 7-5h2l4-1Z"/>
    <path fill="#3B2906" fill-opacity=".5" d="m275 78 4 1c4 0 7 2 8 4l-1 2 1 3c0 3-3 4-7 4h-2l-4 1-4-1c-4 0-8-2-8-4l1-2-1-3c0-2 3-4 7-4h2l4-1Z"/>
    <path fill="#734B02" stroke="#000" stroke-width=".8" d="m82 46 4 1c4 0 7 2 7 4v2l1 3c0 3-3 5-8 5h-1l-4 1-4-1c-5 0-8-2-8-5l1-2-2-2c0-3 4-5 8-5h2l4-1Z"/>
    <path fill="#3B2906" fill-opacity=".5" d="M84 48h4c4 0 7 2 7 5v2l1 3c0 2-4 4-8 4h-1l-4 1-4-1c-5 0-8-2-8-4l1-2-2-3c0-3 4-5 8-5h6Z"/>
    <path fill="#734B02" stroke="#000" stroke-width="1.3" d="m207 63 6 1c6 0 11 3 12 7l-1 3 2 4c-1 4-6 7-12 7h-2l-6 1-7-1c-7 0-12-3-12-7l1-3-2-4c0-4 5-7 12-7h2l7-1Z"/>
    <path fill="#3B2906" fill-opacity=".5" d="m210 65 6 1c6 0 11 3 12 7l-2 3c2 1 2 3 2 4v1c0 4-5 7-11 7h-2l-6 1-7-1c-7 0-12-4-12-8l1-3-2-4c0-4 5-7 12-7h2l7-1Z"/>
  </g>
</svg>