<svg xmlns="http://www.w3.org/2000/svg" xml:space="preserve" viewBox="0 0 512 512">
  <path fill="#965353" d="M316 136 12 439a43 43 0 1 0 61 60l303-303-60-60z"/>
  <path fill="#a85d5d" d="M50 461c-4-4-4-11 0-15l152-152a11 11 0 0 1 15 15L65 461c-4 4-11 4-15 0z"/>
  <path fill="#965353" d="M392 182a43 43 0 1 1-61-61 43 43 0 0 1 61 61z"/>
  <path fill="#a85d5d" d="M369 158a11 11 0 1 1-15-15 11 11 0 0 1 15 15z"/>
  <path fill="#965353" d="M73 482c7 0 15-2 21-6V357l-21 22v103zm43-25 21-22V315l-21 21zm42-43 21-21V272l-21 21z"/>
  <path fill="#a9b1bc" d="M90 181 240 30l257 257-151 150z"/>
  <path fill="#646c77" d="m301 392 30 61 181-181-60-31zM271 60 240 0 59 181l61 30z"/>
  <path fill="#424953" d="M225 75a11 11 0 1 1-15-15 11 11 0 0 1 15 15zm-45 46a11 11 0 1 1-15-15 11 11 0 0 1 15 15zm-45 45a11 11 0 1 1-15-15 11 11 0 0 1 15 15zm317 136a11 11 0 0 1-15-15 11 11 0 0 1 15 15zm-46 45a11 11 0 1 1-15-15 11 11 0 0 1 15 15zm-45 45a11 11 0 1 1-15-15 11 11 0 0 1 15 15z"/>
  <path fill="#e8563f" d="M248 264a53 53 0 0 1 0-75 53 53 0 0 1 75 0 53 53 0 0 1 0 75 53 53 0 0 1-75 0z"/>
  <g fill="#fb6d51">
    <path d="M331 181a64 64 0 1 0-91 91 64 64 0 0 0 91-91zm-15 75a42 42 0 0 1-60 0 42 42 0 0 1 0-60 42 42 0 0 1 60 0 42 42 0 0 1 0 60z"/>
    <path d="m260 185 15-15 65 65-15 15zm-28 33 15-15 65 64-15 15z"/>
  </g>
</svg>