<svg xmlns="http://www.w3.org/2000/svg" viewBox="0 0 197 276">
  <defs>
    <linearGradient id="a" x1="-2.9%" x2="102.9%" y1="1913.8%" y2="1913.8%">
      <stop offset="0%" stop-color="#F1AAC2"/>
      <stop offset="100%" stop-color="#E5638F"/>
    </linearGradient>
    <linearGradient id="b" x1="102.9%" x2="-2.9%" y1="1911.5%" y2="1911.5%">
      <stop offset="0%" stop-color="#F1AAC2"/>
      <stop offset="100%" stop-color="#E5638F"/>
    </linearGradient>
    <linearGradient id="c" x1="27.4%" x2="90.2%" y1="18.8%" y2="90.3%">
      <stop offset="0%" stop-color="#FFCEAE"/>
      <stop offset="100%" stop-color="#FFB280"/>
    </linearGradient>
    <linearGradient id="d" x1="-8.6%" x2="108.6%" y1="1770.3%" y2="1770.3%">
      <stop offset="0%" stop-color="#8A8A8A"/>
      <stop offset="28.6%" stop-color="#F1F1F1"/>
      <stop offset="100%" stop-color="#FFF"/>
    </linearGradient>
    <linearGradient id="e" x1="-8.6%" x2="108.5%" y1="1772.2%" y2="1772.2%">
      <stop offset="0%" stop-color="#8A8A8A"/>
      <stop offset="28.6%" stop-color="#F1F1F1"/>
      <stop offset="100%" stop-color="#FFF"/>
    </linearGradient>
  </defs>
  <g fill="none" fill-rule="evenodd">
    <path fill="#333" stroke="#000" stroke-width="5.8" d="M98 3h-1C83 3 47 6 34 38c-7-9 0 0-21-20 0 0-26 26 10 44 12 116-13 161 61 159h13l3 1v-1h13c74 2 49-43 61-159 36-18 10-44 10-44-21 20-15 11-21 20C149 5 112 3 98 3Z"/>
    <path fill="#93939F" stroke="#000" stroke-width="2.7" d="M170 196c0 43-31 77-70 77-38 0-70-34-70-77 0-42 32-77 70-77 39 0 70 35 70 77Z"/>
    <path fill="#7F7F8D" d="M99 120c37 1 67 35 67 77 0 39-26 72-61 76 24-6 43-38 43-75 0-41-22-75-49-77v-1Z"/>
    <path fill="#C1C1C8" d="M99 119c-38 1-68 35-68 77 0 39 27 72 62 76-24-6-43-38-43-76 0-41 22-74 49-77Z"/>
    <path fill="#FFF" stroke="#000" stroke-width="5.5" d="M73 31c-17 0-31 17-31 37s14 36 31 36c10 0 19-6 25-14 5 8 14 14 25 14 17 0 31-16 31-36s-14-37-31-37c-11 0-20 6-25 15-6-9-15-15-25-15Z"/>
    <path fill="#A5A5A5" d="m138 35 1 7c0 21-15 37-33 37-10 0-19-5-25-14-6 9-15 14-26 14-5 0-10-1-14-3 2 17 16 30 31 30 11 0 20-6 26-15 6 9 15 15 26 15 18 0 32-17 32-38 0-14-7-27-18-33Z" opacity=".3"/>
    <path fill="#000" stroke="#000" stroke-width="3.5" d="M96 70a9 9 0 1 1-18 0 9 9 0 0 1 18 0Z"/>
    <path fill="#FFF" d="M86 67a2 2 0 1 1-5 0 2 2 0 0 1 5 0Z"/>
    <path fill="#000" stroke="#000" stroke-width="3.5" d="M119 70a9 9 0 1 1-18 0 9 9 0 0 1 18 0Z"/>
    <path fill="#FFF" d="M109 67a2 2 0 1 1-5 0 2 2 0 0 1 5 0Z"/>
    <path fill="url(#a)" stroke="#000" stroke-width="1.3" d="M7 26S-6 41 17 56l9-7v-3c-5-3-3-7-12-18l-7-2Z" transform="translate(3 2)"/>
    <path fill="url(#b)" stroke="#000" stroke-width="1.3" d="M184 26s14 16-10 31l-9-8v-3c6-3 3-6 12-17l7-3Z" transform="translate(3 2)"/>
    <path fill="#7F7F8D" d="M90 122c37 2 67 36 67 77 0 40-26 72-61 77 24-7 43-38 43-76 0-41-22-75-49-77v-1Z"/>
    <path fill="url(#c)" stroke="#000" stroke-width="2.7" d="M95 91c-11 0-21 6-26 14-11 3-17 8-17 14l1 5-1 5c0 13 20 23 45 23 24 0 44-10 44-23l-1-6 1-4c0-6-8-12-20-15-5-8-15-13-26-13Z" transform="translate(3 2)"/>
    <path fill="#000" d="M115 101a16 16 0 1 1-32 0 16 16 0 0 1 32 0Z"/>
    <path fill="url(#d)" stroke="#000" stroke-width="3" d="M76 133h18v27H76v-27Z" transform="translate(3 2)"/>
    <path fill="url(#e)" stroke="#000" stroke-width="3" d="M95 132h17v28H95v-28Z" transform="translate(3 2)"/>
    <path stroke="#000" stroke-width="5.4" d="M63 126c26 14 50 12 73-4"/>
  </g>
</svg>