<svg xmlns="http://www.w3.org/2000/svg" xml:space="preserve" viewBox="0 0 297 297">
  <circle cx="148.5" cy="148.5" r="148.5" fill="#f36e81"/>
  <path fill="#c1465d" d="M297 148.5c0-3.92-.15-7.8-.45-11.64l-45.53-45.7L45.17 204.47l92.1 92.11c3.71.28 7.45.42 11.23.42 82.01 0 148.5-66.49 148.5-148.5z"/>
  <path fill="#5e345e" d="M57.8 210.92h181.4c9 0 16.3-7.3 16.3-16.3v-92.23c0-9-7.3-16.3-16.3-16.3H57.8c-9 0-16.3 7.3-16.3 16.3v92.22c0 9 7.3 16.3 16.3 16.3z"/>
  <path fill="#edb7ab" d="M41.5 121.75h214v53.5h-214z"/>
  <path fill="#482649" d="M239.2 86.08h-88.03v124.84h88.03c9 0 16.3-7.3 16.3-16.3v-92.23c0-9-7.3-16.3-16.3-16.3z"/>
  <path fill="#d6988e" d="M151.17 121.75H255.5v53.5H151.17z"/>
  <circle cx="105.27" cy="148.5" r="51.34" fill="#ecf0f1"/>
  <path fill="#5e345e" d="M105.27 203.34c-30.24 0-54.84-24.6-54.84-54.84s24.6-54.84 54.84-54.84c30.24 0 54.84 24.6 54.84 54.84s-24.6 54.84-54.84 54.84zm0-102.68c-26.38 0-47.84 21.46-47.84 47.84s21.46 47.84 47.84 47.84c26.38 0 47.84-21.46 47.84-47.84s-21.46-47.84-47.84-47.84z"/>
  <circle cx="105.27" cy="148.5" r="29.18" fill="#5e345e"/>
</svg>