<svg xmlns="http://www.w3.org/2000/svg" xml:space="preserve" viewBox="0 0 512 512">
  <circle cx="256" cy="256" r="256" fill="#ff314f"/>
  <path fill="#a30f44" d="M263 512c136-4 245-113 249-249L366 117l-23 32-43-44-7 7-24-25-33 14v22l74 74-93 135-5 10-66 53 117 117z"/>
  <path fill="#fee187" d="M358 398H154c-7 0-12-5-12-11V125c0-6 5-11 12-11h204c7 0 12 5 12 11v262c0 6-5 11-12 11z"/>
  <path fill="#ffc61b" d="M358 114H255v284h103c7 0 12-5 12-11V125c0-6-5-11-12-11z"/>
  <path fill="#fff" d="M311 128H156v256h200V172z"/>
  <path fill="#d0d1d3" d="m356 172-45-44h-56v256h101z"/>
  <path fill="#a6a8aa" d="M311 172h45l-45-44z"/>
  <path fill="#ffc61b" d="M296 103h-20a20 20 0 0 0-40 0h-20c-4 0-7 3-7 7v33c0 4 3 7 7 7h80c4 0 7-3 7-7v-33c0-4-3-7-7-7zm-40 7a7 7 0 1 1 0-14 7 7 0 0 1 0 14z"/>
  <path fill="#eaa22f" d="M296 103h-20c0-11-9-20-20-20h-1v13h1a7 7 0 0 1 0 14h-1v40h41c4 0 7-3 7-7v-33c0-4-3-7-7-7z"/>
  <path fill="#386895" d="M209 202h-34v-34h34v34zm-28-5h23v-24h-23v24zm28 62h-34v-34h34v34zm-28-6h23v-23h-23v23zm28 62h-34v-33h34v33zm-28-5h23v-23h-23v23z"/>
  <path fill="#a6a8aa" d="M228 178h56v4h-56zm0 17h85v4h-85zm0 39h85v4h-85zm0 18h56v4h-56zm0 39h113v4H228zm0 18h85v4h-85z"/>
  <path fill="#ff314f" d="m191 307-2-1-10-10a3 3 0 0 1 4-5l8 8 24-24a3 3 0 0 1 5 5l-26 26-3 1z"/>
</svg>