<svg xmlns="http://www.w3.org/2000/svg" xml:space="preserve" viewBox="0 0 512 512">
  <circle cx="256" cy="256.001" r="256" fill="#FB9700"/>
  <path fill="#D06500" d="M505.594 199.187 355.059 100.83v174.828h-180v141.604l135.859 88.77C425.898 480.883 512 378.524 512 256.001c0-19.537-2.262-38.533-6.406-56.814z"/>
  <path fill="#375D70" d="M257.391 72.504c-100.516 0-182 81.484-182 182 0 100.513 81.484 181.997 182 181.997s182-81.484 182-181.997c0-100.516-81.485-182-182-182zm0 328.727c-81.031 0-146.727-65.691-146.727-146.728 0-81.035 65.695-146.728 146.727-146.728 81.039 0 146.727 65.693 146.727 146.728-.001 81.037-65.688 146.728-146.727 146.728z"/>
  <path fill="#000412" d="M257.398 72.504v35.271c81.031.002 146.719 65.693 146.719 146.728 0 81.036-65.688 146.724-146.719 146.728v35.27c100.516 0 181.992-81.484 181.992-181.997.001-100.516-81.476-181.998-181.992-182z"/>
  <path fill="#D2BCB5" d="M257.391 107.775c-81.031 0-146.727 65.693-146.727 146.728 0 81.036 65.695 146.728 146.727 146.728 81.039 0 146.727-65.691 146.727-146.728-.001-81.035-65.688-146.728-146.727-146.728z"/>
  <path fill="#FFFFF5" d="M257.391 121.882c-73.242 0-132.617 59.379-132.617 132.621 0 73.239 59.375 132.622 132.617 132.622s132.617-59.383 132.617-132.622c0-73.242-59.375-132.621-132.617-132.621z"/>
  <path fill="#F2F5F5" d="M257.391 121.882c-.219 0-.438.016-.656.016V387.11c.219 0 .438.016.656.016 73.242 0 132.617-59.383 132.617-132.622 0-73.243-59.375-132.622-132.617-132.622z"/>
  <path fill="#375D70" d="M261.836 400.5c0 2.484-2.016 4.5-4.5 4.5s-4.5-2.016-4.5-4.5v-25c0-2.484 2.016-4.5 4.5-4.5s4.5 2.016 4.5 4.5v25z"/>
  <path fill="#000412" d="M257.398 371.008v33.977c2.453-.031 4.438-2.023 4.438-4.484v-25c0-2.469-1.984-4.458-4.438-4.493z"/>
  <path fill="#002237" d="M135.977 248.417c2.484 0 4.5 2.016 4.5 4.5s-2.016 4.498-4.5 4.498h-25c-2.484 0-4.5-2.014-4.5-4.498 0-2.484 2.016-4.5 4.5-4.5h25z"/>
  <path fill="#000412" d="M403.477 248.417c2.484 0 4.5 2.016 4.5 4.5s-2.016 4.498-4.5 4.498h-25c-2.484 0-4.5-2.014-4.5-4.498 0-2.484 2.016-4.5 4.5-4.5h25z"/>
  <path fill="#375D70" d="M261.836 133.501c0 2.484-2.016 4.5-4.5 4.5s-4.5-2.016-4.5-4.5v-25c0-2.484 2.016-4.5 4.5-4.5s4.5 2.016 4.5 4.5v25z"/>
  <path fill="#000412" d="M257.398 104.014v33.976c2.453-.033 4.438-2.025 4.438-4.488v-25c0-2.463-1.984-4.455-4.438-4.488z"/>
  <path fill="#DD3D2C" d="m324.047 332.165-65.727-76.022-4.539 3.922 65.727 76.026c1.086 1.254 2.984 1.391 4.234.309 1.25-1.087 1.391-2.982.305-4.235z"/>
  <circle cx="257.398" cy="253.5" r="15.5" fill="#002237"/>
  <path fill="#002237" d="M363.977 249.917h-100.5v5.998h100.5c1.656 0 3-1.342 3-2.998s-1.344-3-3-3z"/>
  <path fill="#002237" d="M263.836 249.669c0 3.59-2.906 6.5-6.5 6.5-3.586 0-6.5-2.91-6.5-6.5v-96.334c0-3.59 2.914-6.5 6.5-6.5 3.594 0 6.5 2.91 6.5 6.5v96.334z"/>
  <path fill="#000412" d="M267.898 253.5c0 5.799-4.703 10.502-10.5 10.502-5.805 0-10.5-4.703-10.5-10.502s4.695-10.5 10.5-10.5c5.797 0 10.5 4.701 10.5 10.5z"/>
</svg>