<svg xmlns="http://www.w3.org/2000/svg" xml:space="preserve" viewBox="0 0 512 512">
  <g fill="#71c386">
    <path d="M499.037 43.39H377.546c-5.207 0-8.678-3.471-8.678-8.678s3.471-8.678 8.678-8.678h121.492c5.207 0 8.678 3.471 8.678 8.678s-3.472 8.678-8.679 8.678"/>
    <path d="M473.003 69.424c-2.603 0-4.339-.868-6.075-2.603-3.471-3.471-3.471-8.678 0-12.149l19.959-19.959-19.959-19.959c-3.471-3.471-3.471-8.678 0-12.149s8.678-3.471 12.149 0l26.034 26.034c3.471 3.471 3.471 8.678 0 12.149L479.078 66.82c-1.736 1.736-3.471 2.604-6.075 2.604"/>
  </g>
  <path fill="#fdc794" d="M403.58 225.627c0-19.092-15.62-34.712-34.712-34.712-19.092 0-34.712 15.62-34.712 34.712v-43.39c0-19.092-15.62-34.712-34.712-34.712s-34.712 15.62-34.712 34.712v-34.712c0-19.092-15.62-34.712-34.712-34.712-19.092 0-34.712 15.62-34.712 34.712v34.712V43.39c0-19.092-15.62-34.712-34.712-34.712-19.092 0-34.712 15.62-34.712 34.712v225.627l-15.62-23.43c-17.356-30.373-59.01-44.258-86.78-33.844-4.339.868-6.942 3.471-10.414 5.207-10.414 6.942-8.678 14.753-8.678 17.356s49.464 52.936 78.102 104.136c0 0 25.166 41.654 52.068 69.424V433.9c0 43.39 34.712 78.102 78.102 78.102h86.78c33.844 0 68.556-28.637 76.366-61.614 1.736-7.81 5.207-19.092 10.414-25.166 7.81-8.678 17.356-30.373 17.356-60.746V225.627z"/>
  <path fill="#f9a671" d="M134.563 295.051c-3.471 0-6.075-1.736-7.81-5.207l-8.678-17.356c-1.736-4.339 0-9.546 3.471-11.281 4.339-1.736 9.546 0 11.281 3.471l8.678 17.356c1.736 4.339 0 9.546-3.471 11.281-.868 1.736-1.736 1.736-3.471 1.736m60.745 0c-5.207 0-8.678-3.471-8.678-8.678V138.847c0-5.207 3.471-8.678 8.678-8.678 5.207 0 8.678 3.471 8.678 8.678v147.525c0 5.208-3.471 8.679-8.678 8.679m69.424-8.678c-5.207 0-8.678-3.471-8.678-8.678v-95.458c0-5.207 3.471-8.678 8.678-8.678 5.207 0 8.678 3.471 8.678 8.678v95.458c0 5.207-3.471 8.678-8.678 8.678m69.424 8.678c-5.207 0-8.678-3.471-8.678-8.678v-60.746c0-5.207 3.471-8.678 8.678-8.678 5.207 0 8.678 3.471 8.678 8.678v60.746c0 5.207-3.471 8.678-8.678 8.678m8.678 147.525c-3.471 0-7.81-2.603-8.678-6.075-.868-4.339 1.736-9.546 6.075-10.414l5.207-.868c19.092-5.207 29.505-7.81 32.976-19.092 1.736-4.339 6.075-6.942 11.281-5.207 4.339 1.736 6.942 6.075 5.207 11.281-6.942 20.827-26.034 25.166-45.125 30.373h-4.339c-.869.002-1.736.002-2.604.002m-164.881 0c-1.736 0-3.471-.868-5.207-1.736-5.207-4.339-9.546-6.942-14.753-11.281-6.942-4.339-13.017-9.546-19.959-15.62-3.471-3.471-3.471-8.678-.868-12.149 3.471-3.471 8.678-3.471 12.149-.868 6.075 5.207 12.149 9.546 18.224 13.885 5.207 3.471 10.414 6.942 15.62 12.149 3.471 3.471 4.339 8.678.868 12.149-.868 2.603-3.471 3.471-6.074 3.471"/>
</svg>