<svg width="239" height="195" viewBox="0 0 239 195" fill="none" xmlns="http://www.w3.org/2000/svg">
<path d="M119.094 104.031V104.594C118.625 106 118.297 106.891 118.109 107.266C118.016 107.453 117.875 107.734 117.688 108.109C117.5 108.391 117.312 108.672 117.125 108.953C116.938 109.234 116.703 109.516 116.422 109.797L115.297 110.922C115.016 111.016 114.688 111.25 114.312 111.625C113.938 111.906 113.703 112.094 113.609 112.188C113.516 112.281 113.328 112.422 113.047 112.609C112.859 112.703 112.625 112.891 112.344 113.172C112.156 113.359 111.969 113.594 111.781 113.875C110.656 115 110.094 116.312 110.094 117.812C110 117.906 109.906 118.141 109.812 118.516C109.719 118.797 109.625 118.984 109.531 119.078V119.359C109.812 119.453 109.812 119.875 109.531 120.625C109.344 121.375 109.25 121.797 109.25 121.891V124.562V126.531V127.094C109.25 127.562 109.297 128.312 109.391 129.344C109.484 130.281 109.531 130.984 109.531 131.453C109.531 131.547 109.484 131.734 109.391 132.016C109.297 132.297 109.25 132.484 109.25 132.578C109.156 132.578 108.969 132.859 108.688 133.422C108.688 133.703 108.641 133.938 108.547 134.125C108.453 134.219 108.266 134.359 107.984 134.547C107.797 134.641 107.656 134.734 107.562 134.828C107.375 135.109 106.953 135.484 106.297 135.953C105.641 136.328 105.266 136.562 105.172 136.656C104.984 137.031 104.703 137.406 104.328 137.781C103.953 137.781 103.766 137.875 103.766 138.062C103.953 138.344 103.953 138.672 103.766 139.047C103.672 139.328 103.484 139.469 103.203 139.469L102.641 139.75C102.641 140.125 102.547 140.406 102.359 140.594C101.891 140.875 101.516 141.484 101.234 142.422L100.531 143.828L99.9688 144.953L99.4062 145.516C99.2188 145.703 99.125 145.891 99.125 146.078C99.125 146.547 98.6562 146.922 97.7188 147.203C97.5312 147.578 96.9688 148.469 96.0312 149.875C95.8438 150.062 95.4688 150.438 94.9062 151C94.3438 151.469 93.9219 151.844 93.6406 152.125C92.7969 152.594 92.2344 153.062 91.9531 153.531C91.8594 153.531 91.5781 153.766 91.1094 154.234C90.9219 154.422 90.7344 154.516 90.5469 154.516C90.1719 154.891 89.7969 155.172 89.4219 155.359C88.8594 155.922 88.1562 156.484 87.3125 157.047C87.125 157.234 87.0312 157.422 87.0312 157.609L86.75 157.891C86.375 157.891 86 158.031 85.625 158.312C85.3438 158.594 85.0625 158.969 84.7812 159.438C84.5 159.906 84.3125 160.188 84.2188 160.281C83.8438 160.656 83.4688 160.938 83.0938 161.125C82.8125 161.406 82.3906 161.688 81.8281 161.969L81.5469 162.25C81.1719 162.156 80.7969 162.156 80.4219 162.25C80.1406 162.344 79.8125 162.484 79.4375 162.672C79.1562 162.859 78.9219 163 78.7344 163.094C78.6406 163.188 78.4062 163.281 78.0312 163.375C77.75 163.469 77.5156 163.562 77.3281 163.656C77.0469 163.844 76.8125 163.938 76.625 163.938C76.25 164.781 75.5938 165.344 74.6562 165.625C74.5625 165.625 74.4688 165.672 74.375 165.766C74.2812 165.859 74.1875 165.906 74.0938 165.906C73.4375 166.562 72.875 166.891 72.4062 166.891C72.0312 167.078 71.4688 167.453 70.7188 168.016C70.0625 168.578 69.5469 168.953 69.1719 169.141C69.0781 169.234 68.9375 169.328 68.75 169.422C68.5625 169.516 68.4219 169.609 68.3281 169.703L65.5156 171.109C65.4219 171.203 65.1406 171.344 64.6719 171.531C64.2969 171.719 63.9688 171.906 63.6875 172.094C63.4062 172.188 62.9375 172.562 62.2812 173.219C61.7188 173.781 61.25 174.156 60.875 174.344C60.6875 174.438 60.3125 174.578 59.75 174.766C59.2812 174.953 58.9531 175.094 58.7656 175.188C57.6406 175.75 56.5156 176.031 55.3906 176.031H54.8281L53.7031 176.594L52.7188 177.156C51.5938 177.531 50.6562 177.719 49.9062 177.719C49.8125 177.719 49.3438 178.141 48.5 178.984L47.375 179.547C45.7812 179.547 44.7031 179.641 44.1406 179.828C43.5781 180.391 43.2031 180.672 43.0156 180.672C42.8281 180.859 42.7344 181.047 42.7344 181.234C42.5469 181.797 42.0781 182.172 41.3281 182.359C41.2344 182.359 41.0938 182.453 40.9062 182.641C40.5312 182.828 40.1562 183.109 39.7812 183.484L39.5 183.906C39.3125 184.188 39.125 184.375 38.9375 184.469C38.75 184.562 38.4688 184.562 38.0938 184.469V184.75C38 185.219 37.625 185.5 36.9688 185.594C36.4062 185.688 36.0312 185.781 35.8438 185.875C35.5625 185.875 35.0469 185.688 34.2969 185.312H33.7344H32.6094C31.4844 185.031 30.2188 184.75 28.8125 184.469C28.5312 184.469 28.1562 184.234 27.6875 183.766C27.5 183.391 27.2188 183.203 26.8438 183.203H26.2812H23.4688C23.1875 183.109 22.6719 182.969 21.9219 182.781C21.0781 182.594 20.5156 182.453 20.2344 182.359C19.9531 182.453 19.5312 182.312 18.9688 181.938C18.4062 181.469 17.9844 181.234 17.7031 181.234C17.6094 181.234 17.4688 181.188 17.2812 181.094C17 181 16.8125 180.953 16.7188 180.953C15.9688 180.578 14.6562 180.203 12.7812 179.828C11.6562 179.453 10.7656 179.266 10.1094 179.266C9.54688 179.172 8.84375 178.844 8 178.281C7.15625 177.625 6.64062 177.25 6.45312 177.156H6.17188C6.07812 176.875 5.98438 176.688 5.89062 176.594C5.70312 176.406 5.51562 176.312 5.32812 176.312C5.14062 176.219 5 176.125 4.90625 176.031C4.34375 176.031 3.78125 175.938 3.21875 175.75C2.65625 175.562 2.28125 175.469 2.09375 175.469C1.53125 175.188 1.25 174.812 1.25 174.344L0.6875 172.656C0.40625 172.094 0.59375 171.484 1.25 170.828C2.09375 170.828 3.45312 170.641 5.32812 170.266H5.89062C6.17188 170.547 6.45312 170.734 6.73438 170.828C6.92188 170.828 7.15625 170.781 7.4375 170.688C7.71875 170.594 7.95312 170.547 8.14062 170.547H8.42188C8.42188 170.922 8.60938 170.922 8.98438 170.547C10.8594 170.078 12.125 169.984 12.7812 170.266C13.1562 170.266 13.5312 170.219 13.9062 170.125L14.4688 169.984C14.75 170.078 15.2188 170.125 15.875 170.125C16.4375 170.125 16.9062 170.172 17.2812 170.266C17.6562 170.359 17.9844 170.547 18.2656 170.828H18.5469C20.4219 170.828 21.5469 170.734 21.9219 170.547C22.4844 170.359 23.375 170.266 24.5938 170.266C25.7188 170.266 26.375 170.078 26.5625 169.703C27.2188 169.328 28.2031 168.953 29.5156 168.578H30.3594C30.9219 168.391 31.7656 167.922 32.8906 167.172C32.9844 167.172 33.6406 166.75 34.8594 165.906L36.125 165.344C37.0625 164.875 37.7188 164.406 38.0938 163.938C38.75 163.562 39.6406 163 40.7656 162.25C41.9844 161.5 42.6406 161.125 42.7344 161.125C43.1094 160.75 43.4844 160.469 43.8594 160.281C44.1406 160.094 44.4688 159.812 44.8438 159.438C45.2188 158.969 45.5469 158.641 45.8281 158.453C46.2031 158.078 46.7188 157.891 47.375 157.891C47.9375 157.891 48.4062 157.516 48.7812 156.766C48.9688 156.203 49.4375 155.547 50.1875 154.797C51.875 153.672 53.6094 152.219 55.3906 150.438C56.8906 149.5 58.25 148.328 59.4688 146.922C60.125 146.453 60.875 145.609 61.7188 144.391C61.9062 144.203 62.75 143.547 64.25 142.422C64.3438 142.234 64.8594 141.625 65.7969 140.594C66.7344 139.469 67.4844 138.531 68.0469 137.781C68.8906 136.938 69.7344 135.953 70.5781 134.828C71.2344 134.359 71.75 133.797 72.125 133.141C72.6875 133.141 73.1562 132.953 73.5312 132.578L74.6562 131.453C74.8438 131.266 75.125 130.797 75.5 130.047C75.9688 129.297 76.25 128.875 76.3438 128.781C77.0938 128.312 77.6094 127.656 77.8906 126.812L79.0156 124.562C79.0156 123.531 79.1094 122.547 79.2969 121.609C79.6719 121.234 79.8594 120.859 79.8594 120.484C79.9531 120.203 80.0469 119.781 80.1406 119.219C80.2344 118.562 80.3281 118.094 80.4219 117.812C80.6094 117.625 80.7031 117.438 80.7031 117.25C80.7031 116.312 80.8906 115.562 81.2656 115C81.2656 114.906 81.3594 114.438 81.5469 113.594C81.7344 112.75 81.9219 112.141 82.1094 111.766C82.2969 111.391 82.3906 110.922 82.3906 110.359C82.4844 110.078 82.625 109.656 82.8125 109.094C83 108.531 83.0938 108.109 83.0938 107.828C83.0938 107.547 83.1406 107.078 83.2344 106.422C83.3281 105.766 83.375 105.25 83.375 104.875C83.75 103.75 83.9375 103 83.9375 102.625C84.125 102.438 84.125 102.344 83.9375 102.344C83.8438 102.062 83.8438 101.594 83.9375 100.938C84.0312 100.188 84.0312 99.6719 83.9375 99.3906V96.0156C83.9375 94.9844 83.8438 94.2812 83.6562 93.9062C83.6562 93.5312 83.375 93.2031 82.8125 92.9219C82.3438 92.6406 81.8281 92.5938 81.2656 92.7812C80.8906 92.9688 80.3281 93.0625 79.5781 93.0625C78.1719 93.0625 77.0938 93.1562 76.3438 93.3438C75.7812 93.5312 74.9375 93.625 73.8125 93.625C73.5312 93.7188 72.9688 93.8594 72.125 94.0469C71.375 94.1406 70.8594 94.2344 70.5781 94.3281C70.3906 94.3281 70.1562 94.375 69.875 94.4688C69.5938 94.5625 69.3594 94.6094 69.1719 94.6094C68.8906 94.6094 68.4688 94.75 67.9062 95.0312C67.3438 95.2188 67.0156 95.3594 66.9219 95.4531C66.1719 95.4531 65.6094 95.5469 65.2344 95.7344C65.1406 95.7344 64.9062 95.7812 64.5312 95.875C64.1562 95.9688 63.7812 96.0156 63.4062 96.0156C63.2188 96.0156 62.8438 96.1562 62.2812 96.4375C61.8125 96.7188 61.4375 96.8594 61.1562 96.8594C60.4062 97.2344 59.75 97.4219 59.1875 97.4219H58.2031C57.0781 97.7969 56.0469 97.9844 55.1094 97.9844C53.9844 98.3594 53.1875 98.5469 52.7188 98.5469C51.5938 98.5469 50.4688 98.3594 49.3438 97.9844H48.7812C48.5938 97.5156 47.8906 97.1406 46.6719 96.8594C46.4844 96.8594 46.3906 96.6719 46.3906 96.2969C46.2031 96.2031 45.9688 96.1094 45.6875 96.0156C45.4062 95.8281 45.1719 95.6875 44.9844 95.5938C44.7969 95.5 44.6094 95.3594 44.4219 95.1719C44.2344 94.8906 44.1406 94.6094 44.1406 94.3281C43.9531 93.7656 43.8594 92.9688 43.8594 91.9375H44.1406L44.7031 90.8125V91.6562H44.4219L44.7031 91.9375L45.2656 91.375C45.2656 91 45.6406 90.625 46.3906 90.25C46.4844 90.1562 47.1875 89.7812 48.5 89.125C48.7812 89.125 48.7812 88.7031 48.5 87.8594C49.625 87.2969 50.2812 87.0156 50.4688 87.0156C50.8438 86.6406 51.2188 86.3594 51.5938 86.1719C51.6875 86.0781 52.3906 85.7031 53.7031 85.0469C53.8906 85.0469 54.1719 84.8594 54.5469 84.4844C55.8594 83.1719 56.7031 82.4219 57.0781 82.2344C57.5469 81.7656 58.1094 81.5312 58.7656 81.5312C58.8594 81.4375 59.0938 81.1562 59.4688 80.6875C59.8438 80.2188 60.125 79.9375 60.3125 79.8438C60.6875 79.2812 61.0625 78.8125 61.4375 78.4375C62 77.875 62.2812 77.5 62.2812 77.3125L62.8438 76.75C63.2188 76.5625 63.875 76.0469 64.8125 75.2031C64.9062 75.2031 65.0469 75.1094 65.2344 74.9219C66.1719 74.2656 66.8281 73.5156 67.2031 72.6719C67.7656 72.4844 68.1406 72.2969 68.3281 72.1094C68.6094 71.0781 69.1719 70.2812 70.0156 69.7188C70.1094 69.5312 70.3438 69.2969 70.7188 69.0156C71.1875 68.6406 71.4688 68.3125 71.5625 68.0312C72.4062 67.6562 73.4375 66.2031 74.6562 63.6719C75.125 62.9219 75.5938 61.7969 76.0625 60.2969C76.625 58.7031 77.0469 57.625 77.3281 57.0625C77.5156 56.7812 77.6562 56.4531 77.75 56.0781C77.9375 55.7031 78.125 55.2812 78.3125 54.8125C78.5 54.25 78.6406 53.7812 78.7344 53.4062C78.8281 53.125 78.9219 52.75 79.0156 52.2812C79.1094 51.7188 79.2031 51.2969 79.2969 51.0156L80.4219 48.7656C80.6094 48.5781 80.7031 48.2969 80.7031 47.9219V45.8125V43.8438V40.1875V36.3906V32.5938C80.7031 31.4688 80.8906 30.5312 81.2656 29.7812C81.5469 27.625 81.9219 25.8906 82.3906 24.5781C82.6719 23.7344 82.4844 22.8438 81.8281 21.9062C81.3594 20.4062 80.9844 19.4688 80.7031 19.0938C80.5156 18.7187 80.2344 18.1094 79.8594 17.2656C79.4844 16.3281 79.2031 15.6719 79.0156 15.2969C79.0156 14.9219 78.9219 14.6406 78.7344 14.4531C77.9844 13.9844 77.375 13.9844 76.9062 14.4531C76.7188 14.5469 76.4375 14.6406 76.0625 14.7344C75.6875 14.8281 75.4062 14.9219 75.2188 15.0156C74.8438 15.3906 74.4688 15.6719 74.0938 15.8594C73.4375 16.5156 72.6875 16.8438 71.8438 16.8438C71.2812 16.9375 70.6719 17.2188 70.0156 17.6875C69.4531 18.1562 69.0781 18.4375 68.8906 18.5312C68.7969 18.625 68.75 18.7656 68.75 18.9531C68.75 19.0469 68.7031 19.1406 68.6094 19.2344C68.6094 19.3281 68.5156 19.375 68.3281 19.375C68.1406 19.375 67.8594 19.4688 67.4844 19.6562C67.1094 19.8437 66.8281 19.9375 66.6406 19.9375H65.7969C66.0781 20.5 66.2656 20.7812 66.3594 20.7812C66.4531 21.1563 66.3125 21.5312 65.9375 21.9062C65.6562 22.1875 65.2812 22.3281 64.8125 22.3281H62.8438H62.2812C62 22.6094 61.9062 22.7969 62 22.8906C62 23.2656 62.1875 23.4531 62.5625 23.4531C62.6562 23.4531 62.75 23.5 62.8438 23.5938C62.9375 23.6875 63.0312 23.7344 63.125 23.7344C62.9375 23.9219 62.8438 24.1094 62.8438 24.2969V24.8594C62.375 25.3281 61.9062 25.2344 61.4375 24.5781C61.5312 24.5781 61.625 24.5313 61.7188 24.4375C61.8125 24.3437 61.9062 24.2969 62 24.2969V24.0156C61.7188 24.0156 61.4844 23.9688 61.2969 23.875C61.2031 23.6875 61.1094 23.5 61.0156 23.3125C61.0156 23.125 60.9688 22.9844 60.875 22.8906V24.2969C60.875 24.6719 60.7812 24.8594 60.5938 24.8594C60.5938 25.2344 60.2188 25.6094 59.4688 25.9844C59 26.4531 58.7656 26.9219 58.7656 27.3906C58.9531 27.6719 58.9062 28.0469 58.625 28.5156C58.3438 28.9844 58.0156 29.2188 57.6406 29.2188C57.5469 29.125 57.1719 29.2188 56.5156 29.5C56.1406 29.9687 54.6875 30.7188 52.1562 31.75C51.875 31.8438 51.4062 31.9375 50.75 32.0312C50.0938 32.125 49.625 32.2187 49.3438 32.3125C48.5 32.5938 47.5156 32.875 46.3906 33.1562C45.8281 33.7188 45.4531 34.0469 45.2656 34.1406C44.8906 34.1406 44.7031 34.2344 44.7031 34.4219C44.5156 34.4219 44.0469 34.6094 43.2969 34.9844C43.1094 35.1719 42.8281 35.6406 42.4531 36.3906C42.4531 37.0469 42.1719 37.5156 41.6094 37.7969C41.4219 37.9844 41.1875 38.0781 40.9062 38.0781C41.75 38.3594 41.8906 39.0625 41.3281 40.1875C41.2344 40.2813 41.0469 40.5156 40.7656 40.8906C40.4844 41.1719 40.25 41.4063 40.0625 41.5938C39.5938 42.25 38.75 43 37.5312 43.8438C37.3438 44.0312 36.875 44.125 36.125 44.125C35.9375 44.125 35.6094 44.0312 35.1406 43.8438C34.6719 43.6562 34.2969 43.5625 34.0156 43.5625C33.8281 43.5625 33.7344 43.4688 33.7344 43.2812C33.7344 43.1875 33.6875 43 33.5938 42.7188C33.5 42.4375 33.4531 42.2031 33.4531 42.0156C33.4531 41.7344 33.5469 41.5 33.7344 41.3125C34.8594 39.0625 35.9375 37.3281 36.9688 36.1094L37.8125 34.4219C38.0938 33.9531 38.0938 33.4375 37.8125 32.875C37.8125 32.3125 37.9062 31.8438 38.0938 31.4688C38.6562 31.0937 39.125 30.5312 39.5 29.7812C39.6875 29.5 39.9688 29.0313 40.3438 28.375C40.8125 27.625 41.1406 27.1094 41.3281 26.8281C41.5156 26.4531 42.1719 25.4219 43.2969 23.7344C44.1406 22.5156 44.7031 21.4375 44.9844 20.5C45.0781 20.3125 45.1719 20.0781 45.2656 19.7969C45.3594 19.4219 45.4531 19.1875 45.5469 19.0938C46.4844 17.6875 47.0938 16.8438 47.375 16.5625C47.6562 16.375 47.9844 16 48.3594 15.4375C48.7344 14.7812 49.0625 14.3594 49.3438 14.1719C49.9062 13.4219 50.75 12.4844 51.875 11.3594C53.0938 10.1406 54.0781 9.34375 54.8281 8.96875C56.3281 7.84375 57.3594 7.1875 57.9219 7C58.3906 6.71875 59.6562 6.0625 61.7188 5.03125C62.0938 4.75 62.7031 4.42188 63.5469 4.04688C64.3906 3.57813 64.9531 3.20312 65.2344 2.92188C65.6094 2.82812 66.0781 2.64062 66.6406 2.35938C67.2031 2.07812 67.5781 1.89063 67.7656 1.79688C71.1406 1.23438 72.9688 0.953125 73.25 0.953125C74.75 0.765625 77.2344 0.671875 80.7031 0.671875C81.1719 0.671875 81.7344 0.71875 82.3906 0.8125C83.0469 0.90625 83.4688 0.953125 83.6562 0.953125C85.0625 1.51562 86.6562 1.79688 88.4375 1.79688C89.0938 2.07812 89.9844 2.26562 91.1094 2.35938C92.2344 2.35938 92.9844 2.45313 93.3594 2.64062C93.4531 2.92188 94.1562 3.29688 95.4688 3.76562C95.6562 3.76562 95.9375 3.95312 96.3125 4.32812C96.7812 4.60938 97.0625 4.75 97.1562 4.75C99.0312 5.5 100.156 5.96875 100.531 6.15625C100.719 6.34375 101.047 6.4375 101.516 6.4375C101.891 6.8125 102.172 7 102.359 7C102.922 7.5625 103.484 8.03125 104.047 8.40625C104.328 8.59375 104.844 9.01562 105.594 9.67188C106.344 10.3281 106.906 10.7969 107.281 11.0781C107.562 11.8281 107.938 12.2031 108.406 12.2031C108.781 12.5781 109.156 13.1406 109.531 13.8906C109.812 14.4531 110 14.7344 110.094 14.7344V15.0156C110.188 15.2969 110.328 15.7656 110.516 16.4219C110.703 16.9844 110.844 17.5469 110.938 18.1094C111.031 18.5781 111.031 19 110.938 19.375V19.6562C111.219 20.0313 111.594 21.2031 112.062 23.1719C112.531 24.1094 112.625 25.3281 112.344 26.8281C112.344 27.0156 112.391 27.3906 112.484 27.9531C112.578 28.5156 112.625 28.9375 112.625 29.2188C112.625 30.3438 112.531 31.0937 112.344 31.4688V32.0312C112.719 32.7812 112.906 33.3437 112.906 33.7188C113.188 34.2812 113.188 34.8906 112.906 35.5469V36.3906V37.7969C112.812 37.9844 112.719 38.3125 112.625 38.7812C112.531 39.1563 112.438 39.4844 112.344 39.7656C112.344 40.0469 112.156 40.5625 111.781 41.3125C111.781 41.875 111.688 42.4375 111.5 43C111.406 43.2812 111.125 44.3594 110.656 46.2344C110.656 46.3281 110.609 46.4688 110.516 46.6562C110.422 46.8438 110.375 46.9844 110.375 47.0781C110.469 47.2656 110.281 47.8281 109.812 48.7656C109.062 49.5156 108.594 50.0781 108.406 50.4531C107.656 50.7344 107.281 51.4375 107.281 52.5625C107.281 53.4062 106.672 54.4375 105.453 55.6562C105.266 56.0312 104.984 56.4062 104.609 56.7812C104.328 56.7812 104.047 57.0625 103.766 57.625C103.672 57.7188 103.531 57.8594 103.344 58.0469C103.156 58.1406 103.016 58.2344 102.922 58.3281C102.266 58.9844 101.797 59.9219 101.516 61.1406L101.234 61.4219C100.578 62.0781 100.25 62.9688 100.25 64.0938C100.156 64.2812 100.062 64.5156 99.9688 64.7969C99.875 65.0781 99.7812 65.3125 99.6875 65.5C99.6875 66.4375 99.7812 67 99.9688 67.1875C100.25 67.4688 100.156 67.75 99.6875 68.0312C99.3125 68.2188 99.125 68.5 99.125 68.875V70.4219C98.8438 71.6406 98.1875 72.4844 97.1562 72.9531C96.7812 73.1406 96.2188 73.6094 95.4688 74.3594C95.4688 75.5781 95.75 76.1875 96.3125 76.1875C96.5 76.375 96.7812 76.4688 97.1562 76.4688L97.7188 76.75C98 77.0312 98.2344 77.2188 98.4219 77.3125C98.6094 77.3125 98.8438 77.2656 99.125 77.1719C99.4062 77.0781 99.5938 77.0312 99.6875 77.0312C100.531 76.75 101.047 76.9375 101.234 77.5938C101.516 77.3125 101.844 77.1719 102.219 77.1719C102.594 77.0781 102.828 77.125 102.922 77.3125C103.297 77.5 103.766 77.5938 104.328 77.5938C104.703 77.5938 105.078 77.7812 105.453 78.1562L106.016 78.7188C106.484 78.8125 107 79.0938 107.562 79.5625L108.406 80.125C108.969 80.5 109.531 80.9688 110.094 81.5312C110.656 82.0938 111.031 82.4219 111.219 82.5156C111.219 82.7031 111.5 83.0781 112.062 83.6406C113.094 84.6719 113.609 85.4219 113.609 85.8906C113.609 86.2656 113.703 86.5469 113.891 86.7344C113.891 86.9219 114.078 87.2031 114.453 87.5781C114.734 88.0469 115.016 88.6562 115.297 89.4062C115.672 90.0625 115.953 90.5312 116.141 90.8125C116.328 91 116.609 91.4688 116.984 92.2188C117.172 92.4062 117.266 92.9688 117.266 93.9062C116.984 94.8438 117.172 95.6406 117.828 96.2969C117.828 96.4844 117.875 96.7188 117.969 97C118.062 97.1875 118.109 97.3281 118.109 97.4219C118.109 97.6094 118.156 97.8438 118.25 98.125C118.344 98.4062 118.391 98.6406 118.391 98.8281C118.672 99.8594 118.766 100.562 118.672 100.938C118.672 101.875 118.812 102.906 119.094 104.031ZM67.7656 18.5312V18.25H67.4844C67.2969 18.25 66.8281 18.4375 66.0781 18.8125C66.4531 19 66.7344 19.0938 66.9219 19.0938H67.4844C67.4844 19 67.5312 18.9063 67.625 18.8125C67.7188 18.7187 67.7656 18.625 67.7656 18.5312ZM3.5 172.094L3.78125 171.672C3.6875 171.672 3.59375 171.625 3.5 171.531C3.40625 171.438 3.3125 171.391 3.21875 171.391C3.125 171.391 3.03125 171.438 2.9375 171.531C2.84375 171.625 2.75 171.672 2.65625 171.672C2.84375 171.672 2.9375 171.906 2.9375 172.375L3.5 172.094ZM7.29688 172.938C7.39062 172.938 7.48438 172.797 7.57812 172.516C7.67188 172.422 7.71875 172.375 7.71875 172.375C7.71875 172.281 7.76562 172.188 7.85938 172.094H6.73438C6.73438 172.562 6.78125 172.891 6.875 173.078C6.875 173.266 7.01562 173.219 7.29688 172.938ZM10.1094 173.781C10.2969 173.594 10.3906 173.125 10.3906 172.375H10.1094C9.92188 172.562 9.73438 172.844 9.54688 173.219C9.26562 173.5 9.07812 173.688 8.98438 173.781C8.79688 173.594 8.70312 173.219 8.70312 172.656C8.79688 172.938 8.79688 173.406 8.70312 174.062C8.51562 174.719 8.51562 175.281 8.70312 175.75C8.89062 175.188 9.17188 174.531 9.54688 173.781H10.1094ZM11.6562 174.344L11.9375 174.062C11.8438 173.969 11.75 173.828 11.6562 173.641C11.4688 173.359 11.2812 173.125 11.0938 172.938C11.0938 173.219 10.8594 173.594 10.3906 174.062C11.0469 174.062 11.4688 174.156 11.6562 174.344ZM19.6719 174.625C19.6719 174.25 19.5781 174.062 19.3906 174.062C19.3906 174.812 19.4844 175.375 19.6719 175.75V174.625ZM15.3125 176.031C15.125 175.281 14.75 175.188 14.1875 175.75C14.375 175.938 14.75 176.031 15.3125 176.031ZM17.1406 179.547H17.4219C17.0469 178.797 16.8125 178.422 16.7188 178.422V179.266C16.7188 179.453 16.8594 179.547 17.1406 179.547ZM19.1094 178.141C19.2969 177.953 19.3906 177.625 19.3906 177.156V176.031C19.2031 175.844 19.1094 175.656 19.1094 175.469H18.5469V176.031V176.594C18.2656 177.062 17.9844 177.156 17.7031 176.875C17.7031 177.344 17.8906 177.766 18.2656 178.141H19.1094ZM19.9531 176.594C19.5781 177.719 19.3906 178.609 19.3906 179.266C19.4844 179.172 19.7188 179.031 20.0938 178.844C20.375 178.562 20.6094 178.328 20.7969 178.141C20.7031 178.141 20.6094 178.094 20.5156 178C20.4219 177.812 20.3281 177.719 20.2344 177.719C20.5156 177.531 20.7031 177.391 20.7969 177.297C20.8906 177.203 20.8906 177.109 20.7969 177.016C20.7031 176.828 20.5156 176.594 20.2344 176.312C20.0469 176.312 19.9531 176.406 19.9531 176.594ZM20.7969 181.234C21.1719 180.484 20.9844 180.109 20.2344 180.109L19.6719 180.672C20.0469 181.047 20.4219 181.234 20.7969 181.234ZM24.0312 177.719C24.3125 177.438 24.2188 177.156 23.75 176.875C23.6562 176.781 23.5156 176.641 23.3281 176.453C23.0469 176.266 22.8594 176.125 22.7656 176.031C22.2031 176.031 21.9219 176.219 21.9219 176.594C22.2969 176.594 22.5781 176.688 22.7656 176.875C23.0469 176.875 23.1875 177.062 23.1875 177.438L22.7656 177.719C22.5781 177.906 22.4844 178.234 22.4844 178.703C22.3906 178.703 22.2969 178.656 22.2031 178.562C22.1094 178.469 22.0156 178.422 21.9219 178.422L21.3594 178.984C21.1719 178.984 21.0781 178.891 21.0781 178.703L20.7969 178.984C20.9844 179.172 21.0781 179.453 21.0781 179.828H22.7656C22.7656 179.641 22.9062 179.266 23.1875 178.703L23.75 179.266C23.75 178.891 23.8438 178.609 24.0312 178.422V177.719ZM44.9844 174.344C44.7031 174.906 44.7031 175.469 44.9844 176.031C45.4531 175.562 45.4531 175 44.9844 174.344ZM41.8906 172.375H41.3281C41.4219 172.562 41.5156 172.844 41.6094 173.219C41.7031 173.5 41.7969 173.688 41.8906 173.781H42.1719C42.1719 173.031 42.0781 172.562 41.8906 172.375ZM41.3281 174.625C41.3281 175.281 41.1875 175.75 40.9062 176.031C41.5625 176.031 41.7031 175.562 41.3281 174.625ZM38.9375 172.375C38.5625 172.562 38.1875 172.656 37.8125 172.656C38 172.938 38.5625 173.312 39.5 173.781C39.5 173.219 39.3125 172.75 38.9375 172.375ZM36.9688 172.094H36.125C36.4062 172.656 36.7812 173.219 37.25 173.781C37.7188 174.344 38 174.719 38.0938 174.906C38.375 174.344 38.1875 173.875 37.5312 173.5C37.1562 172.75 36.9688 172.281 36.9688 172.094ZM25.4375 176.031C25.5312 176.125 25.625 176.359 25.7188 176.734C25.8125 177.016 25.9062 177.25 26 177.438H26.2812C26.9375 177.438 27.125 177.859 26.8438 178.703V179.266C27.5938 178.797 27.7812 178.188 27.4062 177.438C27.3125 177.344 27.1719 177.25 26.9844 177.156C26.7031 177.062 26.5625 176.969 26.5625 176.875V176.312H26.2812C26.0938 176.125 25.9062 176.031 25.7188 176.031H25.4375ZM26.2812 181.797C26.4688 181.422 26.75 181.047 27.125 180.672C26.8438 180.672 26.6094 180.812 26.4219 181.094C26.2344 181.281 26.1875 181.516 26.2812 181.797ZM27.125 180.391C27.6875 180.391 27.9688 180.203 27.9688 179.828C27.875 179.828 27.7344 179.781 27.5469 179.688C27.3594 179.594 27.2188 179.547 27.125 179.547V180.391ZM28.25 176.875C28.8125 176.5 29.5156 176.312 30.3594 176.312C29.5156 175.75 28.7188 175.656 27.9688 176.031C27.7812 175.656 27.9688 175.375 28.5312 175.188C27.9688 175.188 27.5469 175.047 27.2656 174.766C26.9844 174.391 26.9375 173.969 27.125 173.5C26.2812 173.5 25.7188 173.875 25.4375 174.625C25.5312 174.625 25.6719 174.578 25.8594 174.484C26.0469 174.391 26.1875 174.344 26.2812 174.344L26.5625 174.062V174.344C26.8438 174.344 26.9375 174.578 26.8438 175.047L26.5625 175.75C26.9375 176.125 27.5 176.5 28.25 176.875ZM31.4844 183.766C31.5781 183.484 31.5312 183.297 31.3438 183.203C31.25 183.109 31.0625 183.062 30.7812 183.062C30.5938 183.062 30.4531 183.016 30.3594 182.922C30.7344 183.297 31.1094 183.578 31.4844 183.766ZM31.7656 176.875C31.9531 176.688 32.0469 176.406 32.0469 176.031H31.7656C31.2031 176.031 30.9219 175.844 30.9219 175.469V174.625L29.7969 175.188C30.1719 175.188 30.3594 175.375 30.3594 175.75L30.6406 176.031C30.6406 176.781 30.8281 176.781 31.2031 176.031L31.4844 176.594L31.7656 176.875ZM33.4531 174.344C33.4531 174.156 32.9844 173.688 32.0469 172.938C32.0469 173.312 32.1406 173.594 32.3281 173.781C32.5156 173.875 32.7031 173.969 32.8906 174.062C33.1719 174.156 33.3594 174.25 33.4531 174.344ZM45.5469 177.719V177.438H45.2656C45.1719 177.438 45.0781 177.484 44.9844 177.578C44.8906 177.672 44.7969 177.719 44.7031 177.719V177.156C44.7031 176.875 44.4219 176.594 43.8594 176.312C43.2969 176.312 42.9219 176.219 42.7344 176.031C42.8281 175.938 42.9219 175.75 43.0156 175.469C43.1094 175.188 43.2031 175 43.2969 174.906C43.2031 174.906 43.1094 174.859 43.0156 174.766C42.9219 174.672 42.8281 174.625 42.7344 174.625C42.3594 176.688 41.75 177.859 40.9062 178.141V177.438C40.9062 177.062 40.7188 176.875 40.3438 176.875C40.1562 176.969 39.8281 177.109 39.3594 177.297C38.9844 177.484 38.5625 177.625 38.0938 177.719C37.7188 177.344 37.5312 177.062 37.5312 176.875L37.25 177.719C37.625 178.094 37.625 178.516 37.25 178.984V179.547H37.5312L37.8125 179.266L38.0938 179.547C38.1875 179.547 38.2812 179.594 38.375 179.688C38.5625 179.781 38.75 179.828 38.9375 179.828C38.9375 180.016 39.125 180.109 39.5 180.109C39.5 180.297 39.4062 180.484 39.2188 180.672C38.6562 180.859 38.375 180.859 38.375 180.672C38.1875 180.578 38 180.531 37.8125 180.531C37.625 180.531 37.5312 180.578 37.5312 180.672C36.6875 180.672 36.2188 180.484 36.125 180.109C36.5 179.734 36.5 179.547 36.125 179.547C35.8438 179.266 35.8438 178.984 36.125 178.703C36.2188 178.609 36.2188 178.422 36.125 178.141C36.125 177.859 36.0312 177.719 35.8438 177.719C36.4062 177.438 36.5938 177.156 36.4062 176.875L36.6875 176.594C36.3125 176.594 36.0312 176.688 35.8438 176.875C35.8438 177.625 35.3281 177.812 34.2969 177.438C34.6719 177.062 34.4844 176.875 33.7344 176.875C33.6406 177.25 33.6406 177.484 33.7344 177.578C33.8281 177.672 34.2031 177.719 34.8594 177.719C34.8594 178.281 35.0938 178.703 35.5625 178.984C35.75 179.172 35.75 179.359 35.5625 179.547C35.5625 179.734 35.4688 179.922 35.2812 180.109L34.8594 179.828C34.9531 180.109 34.8125 180.531 34.4375 181.094C34.0625 181.562 33.8281 181.891 33.7344 182.078V181.797V180.672C33.5469 180.859 33.4531 181.047 33.4531 181.234C33.4531 181.797 33.1719 182.078 32.6094 182.078V183.203H33.4531C32.8906 183.203 32.4219 183.297 32.0469 183.484V183.766C32.7969 183.766 33.2656 183.672 33.4531 183.484C33.6406 183.391 33.6875 183.25 33.5938 183.062C33.5 182.781 33.5469 182.547 33.7344 182.359C34.0156 182.547 34.2031 182.406 34.2969 181.938C34.4844 181.469 34.6719 181.234 34.8594 181.234C34.9531 181.234 35.0469 181.328 35.1406 181.516C35.2344 181.609 35.3281 181.75 35.4219 181.938C35.6094 182.125 35.75 182.266 35.8438 182.359C36.2188 181.984 36.6875 181.797 37.25 181.797L38.9375 182.359C38.375 182.922 37.9062 183.203 37.5312 183.203H37.25C37.0625 183.203 36.9219 183.344 36.8281 183.625C36.8281 183.906 36.7812 184.094 36.6875 184.188C37.1562 184.469 37.625 184.516 38.0938 184.328C38.6562 184.047 39.0312 183.672 39.2188 183.203C39.3125 183.203 39.4062 183.156 39.5 183.062C39.5938 182.969 39.6875 182.922 39.7812 182.922C40.8125 182.266 41.3281 181.703 41.3281 181.234C42.0781 180.859 42.4531 180.391 42.4531 179.828C42.4531 178.797 42.7344 178.094 43.2969 177.719V179.266C43.4844 179.172 43.7656 179.078 44.1406 178.984C44.6094 178.891 44.8906 178.797 44.9844 178.703C45.0781 178.609 45.1719 178.469 45.2656 178.281C45.3594 178 45.4531 177.812 45.5469 177.719ZM45.2656 176.594H46.3906C46.0156 175.844 45.6406 175.844 45.2656 176.594ZM47.375 175.469C48.0312 174.812 47.7969 174.344 46.6719 174.062C46.4844 174.062 46.3906 174.156 46.3906 174.344L46.8125 174.906C47 175.188 47.1875 175.375 47.375 175.469ZM48.5 173.5C48.5 173.875 48.875 173.688 49.625 172.938C48.7812 172.656 48.3125 172.469 48.2188 172.375C48.0312 172.375 47.9375 172.469 47.9375 172.656C48.0312 172.656 48.2188 172.938 48.5 173.5ZM62.8438 162.25C62.6562 162.438 62.5625 162.625 62.5625 162.812L62.8438 163.094V162.25ZM58.2031 163.938V164.219C58.3906 164.594 58.7188 164.781 59.1875 164.781C59.375 164.781 59.4688 164.5 59.4688 163.938V163.656C59.2812 163.844 58.8594 163.938 58.2031 163.938ZM55.9531 162.25C55.3906 162.25 55.1094 162.531 55.1094 163.094L55.3906 163.375C55.5781 163.375 55.8594 163.328 56.2344 163.234C56.6094 163.141 56.8906 163.094 57.0781 163.094C57.4531 162.719 57.2656 162.531 56.5156 162.531C56.3281 162.531 56.1406 162.438 55.9531 162.25ZM53.4219 166.891H52.1562C52.4375 167.453 52.8594 167.453 53.4219 166.891ZM55.3906 169.703C55.3906 169.609 55.5312 169.516 55.8125 169.422C55.9062 169.328 55.9531 169.281 55.9531 169.281C56.0469 169.281 56.1406 169.234 56.2344 169.141C56.1406 168.953 55.9531 168.766 55.6719 168.578C55.4844 168.391 55.3906 168.203 55.3906 168.016L54.5469 168.859C54.4531 168.859 54.3125 168.812 54.125 168.719C53.9375 168.625 53.7969 168.578 53.7031 168.578C53.8906 168.391 53.9844 168.203 53.9844 168.016H53.7031C53.1406 168.016 53.0469 168.203 53.4219 168.578C53.4219 168.672 53.375 168.812 53.2812 169C53.1875 169.188 53.1406 169.328 53.1406 169.422H53.9844L53.4219 170.547C53.2344 170.359 52.9062 170.266 52.4375 170.266V171.391C52.25 171.859 52.3438 172.094 52.7188 172.094L53.7031 171.109C54.1719 171.578 54.6406 171.766 55.1094 171.672C54.3594 171.297 54.0781 170.828 54.2656 170.266C54.6406 169.891 55.0156 169.703 55.3906 169.703ZM57.0781 165.625C57.0781 165.438 57.125 165.062 57.2188 164.5C57.3125 163.938 57.3594 163.562 57.3594 163.375C57.2656 163.375 57.0781 163.516 56.7969 163.797C56.6094 164.078 56.4219 164.219 56.2344 164.219C56.1406 164.125 55.8594 163.938 55.3906 163.656V163.938C56.1406 164.688 56.1406 165.062 55.3906 165.062V165.344V165.625H57.0781ZM58.7656 170.828C58.7656 170.734 58.8594 170.641 59.0469 170.547C59.2344 170.453 59.375 170.359 59.4688 170.266C59.1875 170.266 58.9531 170.172 58.7656 169.984L58.4844 170.266L58.7656 170.828ZM62.8438 165.062H63.125C63.2188 165.062 63.4062 165.344 63.6875 165.906L64.5312 165.062C64.1562 164.688 63.7812 164.359 63.4062 164.078L62.8438 163.656C62.75 163.656 62.6094 163.609 62.4219 163.516C62.2344 163.422 62.0938 163.375 62 163.375L61.7188 163.656C61.3438 163.281 61.0625 162.906 60.875 162.531C60.3125 162.25 59.9375 162.344 59.75 162.812C59.75 163 59.6562 163.188 59.4688 163.375C60.4062 163.844 60.7812 164.406 60.5938 165.062C60.125 165.531 59.6562 165.625 59.1875 165.344C59.1875 165.719 59.0469 166.047 58.7656 166.328V166.891C58.5781 167.078 58.4844 167.266 58.4844 167.453C58.4844 167.641 58.2031 167.734 57.6406 167.734L57.3594 168.016C57.3594 168.109 57.4062 168.203 57.5 168.297C57.5938 168.391 57.6406 168.484 57.6406 168.578H57.9219C58.1094 168.766 58.2031 169.047 58.2031 169.422H58.4844C58.2969 168.953 58.5312 168.391 59.1875 167.734C59.2812 167.641 59.375 167.5 59.4688 167.312C59.5625 167.125 59.6562 166.984 59.75 166.891C60.125 166.141 60.5 165.953 60.875 166.328C60.875 166.703 60.7812 167.078 60.5938 167.453C60.5938 167.641 60.5 167.734 60.3125 167.734V167.453C60.2188 167.453 60.0312 167.734 59.75 168.297C60.5 168.297 61.0625 168.391 61.4375 168.578C61.25 168.016 61.1562 167.359 61.1562 166.609H62H62.5625V165.906L62.2812 165.625C61.9062 165.625 61.6719 165.531 61.5781 165.344C61.4844 165.156 61.5312 165.062 61.7188 165.062H62.8438ZM65.2344 167.734C65.2344 167.641 65.2344 167.547 65.2344 167.453C65.2344 167.266 65.1875 167.219 65.0938 167.312C65.0938 167.5 65.1406 167.641 65.2344 167.734H64.8125C64.25 167.172 63.875 166.891 63.6875 166.891C63.5938 166.984 63.5938 167.078 63.6875 167.172C63.7812 167.266 64.2969 167.641 65.2344 168.297V167.734ZM78.4531 152.406V152.969H78.7344C79.1094 152.594 79.3906 152.406 79.5781 152.406L79.2969 152.125C79.1094 152.125 79.0156 152.219 79.0156 152.406H78.4531ZM79.2969 157.891H79.5781C79.2031 157.328 78.8281 157.234 78.4531 157.609C78.5469 157.609 78.6875 157.656 78.875 157.75C79.0625 157.844 79.2031 157.891 79.2969 157.891ZM79.8594 152.688C80.5156 152.5 80.7031 152.219 80.4219 151.844C80.3281 151.938 80.2344 152.078 80.1406 152.266C80.0469 152.453 79.9531 152.594 79.8594 152.688ZM80.7031 131.734V131.453C80.7031 131.266 80.5156 131.172 80.1406 131.172V131.734H80.7031ZM83.9375 148.75C82.9062 148.562 82.3906 148.75 82.3906 149.312C82.5781 149.125 83 149.219 83.6562 149.594C83.6562 149.031 83.75 148.75 83.9375 148.75ZM82.1094 157.047C82.7656 156.578 83.0938 156.203 83.0938 155.922C83 155.922 82.7656 155.875 82.3906 155.781C82.1094 155.688 81.9219 155.641 81.8281 155.641C81.6406 155.828 81.7344 156.297 82.1094 157.047ZM83.6562 152.969C83.8438 152.969 83.9375 152.875 83.9375 152.688C83.75 152.5 83.5625 152.406 83.375 152.406H83.0938L83.6562 152.969ZM87.0312 150.156H88.1562C87.6875 149.125 87.3125 149.125 87.0312 150.156ZM91.3906 144.953C91.2031 144.953 91.1094 145.047 91.1094 145.234L91.6719 146.359C91.8594 145.984 91.9531 145.609 91.9531 145.234V144.953C91.9531 144.578 91.7656 144.578 91.3906 144.953ZM88.4375 146.922H90.2656C89.8906 146.547 89.2812 146.547 88.4375 146.922ZM90.2656 137.5L90.5469 137.219H90.2656C90.0781 137.031 89.5625 136.938 88.7188 136.938V137.5H90.2656ZM91.9531 151.281C92.0469 151.094 92.1406 150.766 92.2344 150.297C92.3281 149.828 92.4219 149.5 92.5156 149.312C92.4219 149.125 91.8594 149.219 90.8281 149.594C90.6406 149.781 90.5 150.109 90.4062 150.578C90.4062 151.047 90.3594 151.375 90.2656 151.562H91.6719C91.8594 151.562 91.9531 151.469 91.9531 151.281ZM93.6406 139.75V139.469C92.8906 139.469 92.3281 139.562 91.9531 139.75H92.5156H93.6406ZM96.5938 145.516V144.953C96.0312 144.953 95.6562 144.859 95.4688 144.672C95.2812 144.953 95.2812 145.188 95.4688 145.375C95.6562 145.469 96.0312 145.516 96.5938 145.516ZM95.1875 142.703C95.375 142.891 95.6094 142.938 95.8906 142.844C96.1719 142.656 96.4062 142.609 96.5938 142.703C96.5938 142.609 96.5469 142.516 96.4531 142.422C96.3594 142.328 96.3125 142.234 96.3125 142.141C95.9375 142.516 95.5625 142.703 95.1875 142.703ZM108.969 98.8281C108.969 100.047 109.156 100.844 109.531 101.219C109.625 100.938 109.719 100.562 109.812 100.094C109.906 99.625 110 99.2969 110.094 99.1094C110.094 99.0156 110.047 98.875 109.953 98.6875C109.859 98.5 109.812 98.3594 109.812 98.2656L108.969 98.8281ZM108.688 103.75C108.125 104.312 107.656 104.688 107.281 104.875V105.719H107.562L107.844 105.438C108.031 105.438 108.125 105.531 108.125 105.719C108.312 105.531 108.594 105.438 108.969 105.438C108.969 105.906 109.062 106.234 109.25 106.422C109.719 106.891 109.719 107.359 109.25 107.828C109.438 107.641 109.719 107.547 110.094 107.547C110.281 107.359 110.469 107.266 110.656 107.266C110.562 107.266 110.469 107.125 110.375 106.844C110.281 106.75 110.234 106.703 110.234 106.703C110.234 106.609 110.188 106.516 110.094 106.422C110.094 106.234 109.812 106.141 109.25 106.141C109.531 105.578 109.906 105.062 110.375 104.594C110.188 104.219 110.094 103.75 110.094 103.188C109.531 103.188 109.062 103.375 108.688 103.75ZM106.016 117.812C106.016 117.062 106.297 116.594 106.859 116.406C106.484 116.219 106.203 116.125 106.016 116.125C105.922 116.125 105.734 116.172 105.453 116.266C105.172 116.359 104.984 116.406 104.891 116.406C104.891 116.781 104.797 117.062 104.609 117.25C104.609 117.344 104.516 117.344 104.328 117.25C104.234 117.156 104.094 117.156 103.906 117.25C103.719 117.344 103.578 117.531 103.484 117.812H106.016ZM106.859 119.641C106.578 119.547 106.297 119.172 106.016 118.516C106.016 118.609 105.969 118.703 105.875 118.797C105.781 118.891 105.734 118.984 105.734 119.078V119.922H106.859V119.641ZM104.609 112.469H105.453C105.641 112.469 105.734 112.234 105.734 111.766H105.453C105.359 111.766 105.078 112 104.609 112.469ZM106.297 109.516C106.297 109.609 106.438 109.75 106.719 109.938C107.094 110.125 107.281 110.266 107.281 110.359C108.125 110.078 108.219 109.609 107.562 108.953C107.469 109.047 107.328 109.141 107.141 109.234C107.047 109.234 106.906 109.281 106.719 109.375C106.625 109.375 106.484 109.422 106.297 109.516ZM107.844 103.75C108.219 103 108.406 102.344 108.406 101.781C107.844 101.781 107.562 101.875 107.562 102.062C107.562 103 107.656 103.562 107.844 103.75ZM107.281 80.6875C106.625 80.875 106.297 81.3906 106.297 82.2344H107.281C107.281 82.4219 107.328 82.6562 107.422 82.9375C107.516 83.2188 107.562 83.4531 107.562 83.6406C107.375 84.0156 107.562 84.2031 108.125 84.2031C108.125 82.8906 108.031 82.0938 107.844 81.8125C108.406 81.5312 108.594 81.25 108.406 80.9688V81.25C108.219 81.4375 108.031 81.5312 107.844 81.5312H107.562V81.25L107.844 80.9688V80.125L107.281 80.4062V80.6875ZM106.297 110.641C106.297 110.172 106.016 110.078 105.453 110.359H105.172C104.797 110.359 104.516 110.266 104.328 110.078L104.047 110.641H105.172H106.297ZM104.891 101.781L104.609 102.344C104.703 102.438 104.797 102.578 104.891 102.766C104.984 102.859 105.078 102.953 105.172 103.047C105.266 103.141 105.359 103.188 105.453 103.188C105.453 103.094 105.5 102.953 105.594 102.766C105.688 102.578 105.734 102.438 105.734 102.344C105.359 101.969 105.078 101.781 104.891 101.781ZM106.016 108.391C106.016 108.016 105.828 107.641 105.453 107.266V108.391L106.016 108.953V108.672V108.391ZM105.734 80.4062L104.609 79.8438C104.609 81.0625 104.703 81.8594 104.891 82.2344H105.734V80.4062ZM103.766 79C103.578 79.5625 103.766 79.8438 104.328 79.8438C104.516 79.8438 104.609 79.5625 104.609 79H103.766ZM102.922 108.391C102.922 108.203 102.828 108.109 102.641 108.109C102.641 107.922 102.453 107.828 102.078 107.828V108.672C102.734 108.484 103.203 108.766 103.484 109.516H103.906H103.766C103.953 109.141 104.141 108.859 104.328 108.672C104.141 108.484 103.953 108.391 103.766 108.391H102.922ZM102.359 104.031C102.078 104.312 102.078 104.781 102.359 105.438C102.734 104.875 102.734 104.406 102.359 104.031ZM101.797 114.438H100.531L100.812 114.719C100.812 114.812 100.953 115 101.234 115.281C101.234 115.844 101.422 116.312 101.797 116.688V117.25L101.516 117.812H102.641C103.016 117.812 103.109 117.625 102.922 117.25C103.109 117.062 103.203 116.875 103.203 116.688C103.297 116.5 103.484 116.312 103.766 116.125C104.141 115.938 104.422 115.75 104.609 115.562V115.844C104.797 116.031 104.891 116.031 104.891 115.844C105.078 115.844 105.172 115.656 105.172 115.281V114.438C105.172 113.688 104.984 113.312 104.609 113.312C104.422 113.125 104.234 113.031 104.047 113.031L104.328 112.469C104.516 112.469 104.609 112.375 104.609 112.188C104.609 112.094 104.562 111.953 104.469 111.766C104.375 111.578 104.328 111.391 104.328 111.203C104.047 111.953 103.672 112.469 103.203 112.75L102.641 112.469H102.359C102.547 112.656 102.641 113.125 102.641 113.875C102.828 113.5 103.109 113.312 103.484 113.312C103.672 113.688 103.766 114.062 103.766 114.438L103.484 114.719C102.922 115 102.641 115.281 102.641 115.562C102.453 115.844 102.219 115.844 101.938 115.562L101.516 115.281H101.234C101.328 115.188 101.422 115.047 101.516 114.859C101.609 114.578 101.703 114.438 101.797 114.438ZM102.641 120.766L102.078 120.203C101.891 120.578 101.797 120.859 101.797 121.047H102.641V120.766ZM101.797 128.781C101.609 128.312 101.281 128.312 100.812 128.781H101.797ZM99.125 139.75C99.125 139 98.8438 138.531 98.2812 138.344C98.2812 139.281 98.0938 139.844 97.7188 140.031H98.2812L99.125 139.75ZM99.125 118.234V117.812C99.2188 117.531 99.1719 117.391 98.9844 117.391C98.7969 117.391 98.6562 117.344 98.5625 117.25C98.4688 117.438 98.6562 117.766 99.125 118.234ZM99.4062 126.812H99.9688C99.9688 126.438 99.875 126.25 99.6875 126.25C100.062 125.875 100.25 125.594 100.25 125.406C100.25 125.219 100.062 124.938 99.6875 124.562C99.6875 124.375 99.5 124.281 99.125 124.281V124.844V125.688C99.3125 125.875 99.4062 126.25 99.4062 126.812ZM100.812 140.031L101.234 139.75C101.234 139.656 101.141 139.422 100.953 139.047C100.859 138.672 100.812 138.438 100.812 138.344C100.438 138.344 100.25 138.156 100.25 137.781C100.438 137.594 100.531 137.406 100.531 137.219C100.812 136.75 100.812 136.375 100.531 136.094C100.531 136 100.484 135.906 100.391 135.812C100.297 135.625 100.25 135.484 100.25 135.391L99.9688 136.094V138.062C100.156 138.156 100.25 138.297 100.25 138.484C100.25 138.578 100.203 138.766 100.109 139.047C100.016 139.328 99.9688 139.562 99.9688 139.75C100.531 139.75 100.812 139.844 100.812 140.031ZM107.844 132.578C107.844 130.609 107.75 129.438 107.562 129.062C107.469 129.156 107.328 129.25 107.141 129.344C107.047 129.438 106.953 129.531 106.859 129.625C106.016 128.5 106.016 127.75 106.859 127.375C106.672 127.188 106.484 127.047 106.297 126.953C106.203 126.859 106.109 126.812 106.016 126.812C106.016 126.719 106.016 126.625 106.016 126.531C106.016 126.156 106.062 125.781 106.156 125.406C106.25 125.031 106.297 124.75 106.297 124.562C106.297 124.656 106.344 124.75 106.438 124.844C106.625 124.844 106.812 124.891 107 124.984C107.188 124.984 107.375 125.031 107.562 125.125V123.297C107 123.578 106.531 123.484 106.156 123.016L106.016 122.734V123.297H105.734C105.734 123.109 105.781 122.875 105.875 122.594C105.969 122.219 106.016 121.891 106.016 121.609C105.922 121.609 105.828 121.562 105.734 121.469C105.641 121.375 105.547 121.328 105.453 121.328C105.359 121.516 105.266 121.844 105.172 122.312C105.078 122.688 104.984 122.922 104.891 123.016L103.766 122.453V123.297C103.766 123.672 103.484 123.859 102.922 123.859C102.734 123.859 102.641 123.672 102.641 123.297H102.078H100.812C100.812 123.391 100.859 123.578 100.953 123.859C101.141 124.047 101.234 124.188 101.234 124.281C101.234 124.188 101.281 124.094 101.375 124C101.469 123.812 101.516 123.672 101.516 123.578C101.609 123.672 101.703 123.859 101.797 124.141C101.891 124.328 101.984 124.469 102.078 124.562C102.828 123.812 103.578 124 104.328 125.125L103.766 125.688H102.641L103.203 126.25C103.297 126.344 103.484 126.438 103.766 126.531C104.047 126.625 104.234 126.719 104.328 126.812L104.609 127.094C104.422 127.469 104.141 127.844 103.766 128.219C103.766 128.406 103.812 128.594 103.906 128.781C104 128.875 104.047 128.969 104.047 129.062H103.484C103.297 129.344 103.297 129.766 103.484 130.328C103.672 130.891 103.672 131.266 103.484 131.453L102.922 131.172L103.203 130.891L102.641 129.906V130.891V131.453C102.266 131.547 102.172 131.828 102.359 132.297C102.359 132.109 102.453 131.828 102.641 131.453C102.641 131.547 102.734 131.688 102.922 131.875C103.109 132.062 103.203 132.203 103.203 132.297C103.203 132.484 103.109 132.625 102.922 132.719C102.734 132.719 102.641 132.766 102.641 132.859C102.266 133.047 101.797 133.422 101.234 133.984C101.234 134.078 101.281 134.359 101.375 134.828C101.469 135.297 101.516 135.719 101.516 136.094L102.359 137.781C103.391 137.781 103.766 137.312 103.484 136.375C103.859 136 104.047 135.578 104.047 135.109C104.047 135.016 103.906 134.922 103.625 134.828C103.531 134.734 103.438 134.688 103.344 134.688C103.344 134.688 103.297 134.641 103.203 134.547C103.203 134.453 103.25 134.359 103.344 134.266C103.438 134.172 103.484 134.078 103.484 133.984C103.859 133.609 104.141 133.422 104.328 133.422L104.609 133.141C104.703 133.234 104.891 133.234 105.172 133.141C105.453 132.953 105.641 132.859 105.734 132.859C105.641 132.766 105.5 132.625 105.312 132.438C105.125 132.156 104.984 131.922 104.891 131.734C104.797 131.547 104.797 131.266 104.891 130.891C105.359 131.359 105.828 131.172 106.297 130.328C106.297 130.516 106.438 130.797 106.719 131.172C107 131.453 107.188 131.641 107.281 131.734C106.625 131.734 106.297 132.016 106.297 132.578H107.844ZM107.844 121.047C108.219 120.391 108.125 119.922 107.562 119.641C107.188 120.109 106.953 120.438 106.859 120.625C106.859 120.812 107 121.094 107.281 121.469C107.562 121.844 107.75 122.172 107.844 122.453V121.047ZM108.969 113.875C108.781 113.312 108.594 113.031 108.406 113.031C108.5 113.125 108.594 113.266 108.688 113.453C108.781 113.734 108.875 113.875 108.969 113.875ZM109.25 109.234V108.953C109.062 108.766 108.969 108.484 108.969 108.109C108.969 107.453 108.688 107.266 108.125 107.547V108.391C108.5 108.766 108.875 109.047 109.25 109.234ZM111.781 110.359C111.781 110.266 111.828 110.172 111.922 110.078C112.016 109.984 112.062 109.891 112.062 109.797L111.781 109.516C111.406 109.141 111.219 108.859 111.219 108.672H109.531L110.094 108.953C110.094 109.234 110.234 109.516 110.516 109.797C110.891 110.078 111.125 110.266 111.219 110.359H111.781ZM115.578 92.7812L115.297 93.0625V94.6094C115.484 95.1719 115.578 95.7344 115.578 96.2969C115.578 96.6719 115.859 96.8594 116.422 96.8594C116.703 96.2969 116.891 96.0156 116.984 96.0156C116.609 95.9219 116.422 95.5469 116.422 94.8906C116.703 94.4219 116.609 93.7188 116.141 92.7812C115.953 92.9688 115.859 93.1562 115.859 93.3438C115.672 93.1562 115.578 92.9688 115.578 92.7812ZM114.734 97.4219V97.9844H115.859L115.297 97.4219H114.734ZM112.062 95.1719C112.438 95.5469 112.719 95.7344 112.906 95.7344C113.375 95.7344 113.609 95.3594 113.609 94.6094V94.3281C112.578 94.3281 112.062 94.6094 112.062 95.1719ZM112.906 96.8594V97.7031C112.906 97.7969 112.953 97.9375 113.047 98.125C113.234 98.3125 113.328 98.4531 113.328 98.5469C113.703 98.1719 113.797 97.7969 113.609 97.4219C113.609 97.3281 113.516 97.2344 113.328 97.1406C113.141 97.0469 113 96.9531 112.906 96.8594ZM113.328 102.344L114.172 101.5H113.891L113.328 102.062V102.344ZM117.266 102.625C117.547 102.719 117.734 102.719 117.828 102.625C117.922 102.531 117.969 102.391 117.969 102.203C117.969 102.016 118.016 101.875 118.109 101.781C117.922 101.594 117.734 101.5 117.547 101.5V100.094C117.359 100.281 117.266 100.562 117.266 100.938C116.703 100.094 116.422 99.5781 116.422 99.3906C116.422 99.0156 116.703 98.5469 117.266 97.9844H116.141C115.484 97.9844 115.297 98.3594 115.578 99.1094V99.3906C115.109 100.703 115.109 101.594 115.578 102.062C115.484 102.062 115.297 102.109 115.016 102.203C114.734 102.297 114.547 102.344 114.453 102.344C114.078 102.719 113.797 102.906 113.609 102.906L114.172 104.031C114.547 103.656 114.922 103.141 115.297 102.484C115.766 101.734 116.141 101.219 116.422 100.938C116.422 101.125 116.609 101.219 116.984 101.219H117.266V102.625ZM38.9375 178.984C38.2812 178.703 38.375 178.281 39.2188 177.719C39.3125 177.812 39.3594 177.953 39.3594 178.141C39.4531 178.234 39.5 178.375 39.5 178.562C39.5938 178.656 39.6875 178.797 39.7812 178.984H38.9375ZM102.359 136.938V136.656C102.359 136.188 102.453 135.859 102.641 135.672C102.641 135.766 102.828 136 103.203 136.375C102.734 136.844 102.453 137.031 102.359 136.938ZM102.359 134.266C102.547 134.266 102.734 134.359 102.922 134.547H103.203L102.641 135.109V134.828L102.359 134.266ZM234.969 81.5312C234.688 83.5938 234.781 85.2344 235.25 86.4531C235.25 86.7344 235.203 87.1094 235.109 87.5781C235.016 88.0469 234.969 88.375 234.969 88.5625C234.969 88.8438 234.922 89.2656 234.828 89.8281C234.734 90.2969 234.688 90.625 234.688 90.8125C234.312 91.9375 234.125 92.7812 234.125 93.3438C233.938 94.6562 233.844 96.5781 233.844 99.1094C233.844 99.3906 233.797 99.7656 233.703 100.234C233.609 100.703 233.562 101.031 233.562 101.219C233.188 102.25 233.094 102.906 233.281 103.188C233.281 104.969 233 106.234 232.438 106.984C231.969 107.453 231.734 107.828 231.734 108.109C231.359 108.859 231.172 109.422 231.172 109.797V110.359C231.172 110.734 230.984 111.391 230.609 112.328C230.328 113.172 230.141 113.781 230.047 114.156C229.953 114.531 229.766 115.094 229.484 115.844C229.203 116.594 229.016 117.156 228.922 117.531C228.922 118.375 229.016 118.984 229.203 119.359C229.109 119.641 228.969 119.922 228.781 120.203C228.688 120.391 228.641 120.578 228.641 120.766C228.734 121.141 228.734 121.562 228.641 122.031C228.547 122.406 228.406 122.828 228.219 123.297C228.031 123.672 227.891 124 227.797 124.281C227.047 126.531 226.672 128.406 226.672 129.906C226.672 130.281 226.438 130.703 225.969 131.172C225.594 131.547 225.406 131.922 225.406 132.297C224.562 134.266 224 136.281 223.719 138.344C223.531 138.812 223.156 140.078 222.594 142.141C222.5 142.234 222.406 142.375 222.312 142.562C222.219 142.75 222.125 142.891 222.031 142.984C221.938 143.172 221.75 143.453 221.469 143.828C221.188 144.203 221 144.484 220.906 144.672C220.906 144.766 220.859 144.906 220.766 145.094C220.672 145.281 220.625 145.422 220.625 145.516C219.688 146.453 219.172 147.016 219.078 147.203C218.891 147.953 218.516 148.891 217.953 150.016C217.391 151.141 217.016 151.938 216.828 152.406C216.828 152.781 216.641 153.156 216.266 153.531C216.453 153.719 216.547 154.141 216.547 154.797C216.547 155.359 216.359 156.016 215.984 156.766H214.859C214.578 157.422 213.688 159.25 212.188 162.25C211.812 163 211.625 163.656 211.625 164.219C211.25 164.969 210.875 165.531 210.5 165.906C209.562 166.562 209 167.172 208.812 167.734C208.812 168.109 208.719 168.297 208.531 168.297C208.25 168.484 207.828 168.906 207.266 169.562C206.703 170.219 206.328 170.641 206.141 170.828C205.297 171.672 204.828 172.281 204.734 172.656C204.734 173.312 204.359 173.875 203.609 174.344L202.766 175.188C200.984 176.969 199.812 178.234 199.25 178.984C199.062 179.172 198.688 179.266 198.125 179.266C198.125 179.734 197.938 180.25 197.562 180.812C197.281 181.281 197.094 181.609 197 181.797C196.906 181.891 195.453 183.062 192.641 185.312C192.547 185.5 192.312 185.828 191.938 186.297C191.656 186.766 191.422 187.094 191.234 187.281C191.984 187.469 192.641 187.375 193.203 187C193.391 186.906 193.625 186.719 193.906 186.438C194.188 186.062 194.422 185.875 194.609 185.875C194.797 186.812 194.609 187.469 194.047 187.844L192.359 188.688C192.359 188.5 192.266 188.406 192.078 188.406C191.891 188.5 191.656 188.688 191.375 188.969C191.094 189.25 190.859 189.391 190.672 189.391C190.578 189.484 190.344 189.438 189.969 189.25C189.875 189.438 189.781 189.672 189.688 189.953C189.688 190.234 189.641 190.422 189.547 190.516C189.453 190.703 189.219 190.797 188.844 190.797C188.469 190.797 188.188 190.703 188 190.516C187.625 190.891 187.344 191.078 187.156 191.078C186.781 191.078 186.406 191.172 186.031 191.359C185.75 191.547 185.422 191.781 185.047 192.062C184.766 192.438 184.531 192.672 184.344 192.766C184.156 192.672 183.875 192.578 183.5 192.484C183.219 192.484 182.938 192.438 182.656 192.344C182.469 192.344 182.328 192.297 182.234 192.203C182.047 192.578 181.766 192.953 181.391 193.328C180.828 193.047 180.266 193.047 179.703 193.328C178.953 193.703 178.25 193.891 177.594 193.891C176.844 193.891 176.375 193.984 176.188 194.172H175.625C175.438 193.797 175.062 193.703 174.5 193.891C174.312 193.797 174.031 193.703 173.656 193.609C173.281 193.516 173 193.422 172.812 193.328H172.109C171.172 193.328 170.703 193.047 170.703 192.484C169.953 192.109 169.297 191.828 168.734 191.641C168.359 191.453 167.984 191.172 167.609 190.797C167.047 190.797 166.438 190.469 165.781 189.812L165.5 189.531C164.844 189.719 164.375 189.344 164.094 188.406C163.906 188.406 163.719 188.312 163.531 188.125L162.969 188.406L161.281 187.562L160.719 187.281C160.438 186.906 159.969 186.438 159.312 185.875C158.75 185.312 158.328 184.844 158.047 184.469C157.203 184.469 156.453 183.859 155.797 182.641C155.047 181.891 154.672 181.234 154.672 180.672C154.391 180.484 154.156 180.297 153.969 180.109C153.406 179.547 153.125 178.891 153.125 178.141V177.438C153.031 177.25 152.844 176.969 152.562 176.594C152.281 176.219 152.094 175.938 152 175.75C151.625 175 151.438 174.438 151.438 174.062C151.25 174.062 151.062 174.156 150.875 174.344C151.062 173.5 150.5 172.422 149.188 171.109C148.625 170.547 148.438 169.797 148.625 168.859C148.156 168.391 147.922 167.406 147.922 165.906L147.641 165.344C147.266 165.156 146.984 164.969 146.797 164.781C146.703 164.5 146.656 164.219 146.656 163.938C146.656 163.656 146.609 163.469 146.516 163.375V163.094C145.953 162.438 145.438 161.359 144.969 159.859C144.594 158.359 144.266 157.328 143.984 156.766C143.516 155.359 143.047 154.188 142.578 153.25C142.297 152.406 141.828 151.141 141.172 149.453C140.609 147.672 140.188 146.359 139.906 145.516C139.531 144.766 139.438 144.203 139.625 143.828C139.719 143.078 139.625 142.047 139.344 140.734C139.156 139.328 139.062 138.438 139.062 138.062C139.062 137.875 139.016 137.688 138.922 137.5C138.828 137.219 138.781 137.031 138.781 136.938C138.219 136.375 138.219 135.672 138.781 134.828C138.406 134.641 138.219 134.078 138.219 133.141C138.219 133.047 138.266 132.906 138.359 132.719C138.453 132.531 138.453 132.391 138.359 132.297C138.359 132.109 138.219 131.922 137.938 131.734V131.172C138.781 130.047 138.875 128.781 138.219 127.375C137.938 126.344 137.938 125.406 138.219 124.562C138.219 123.719 138.125 123.109 137.938 122.734C137.938 122.641 137.891 122.547 137.797 122.453C137.703 122.266 137.656 122.078 137.656 121.891C137.75 121.516 137.75 121.141 137.656 120.766C137.562 120.391 137.422 120.016 137.234 119.641C137.047 119.172 136.906 118.797 136.812 118.516C136.344 116.641 136.109 115.562 136.109 115.281V114.719C135.547 113.875 135.266 112.328 135.266 110.078C135.266 109.141 135.172 108.484 134.984 108.109C134.984 105.203 135.172 103.094 135.547 101.781C135.547 101.406 135.5 100.844 135.406 100.094C135.312 99.3438 135.266 98.7344 135.266 98.2656C135.078 98.0781 135.078 97.8906 135.266 97.7031C135.453 97.4219 135.359 96.7656 134.984 95.7344C136.203 95.1719 136.484 94.0938 135.828 92.5C136.297 92.5 136.531 92.2188 136.531 91.6562C137.281 86.9688 137.656 83.4062 137.656 80.9688C137.656 80.4062 137.75 80.0312 137.938 79.8438C138.219 79.1875 138.453 78.4375 138.641 77.5938C138.828 76.6562 139.016 75.6719 139.203 74.6406C139.391 73.5156 139.531 72.6719 139.625 72.1094C139.719 71.8281 139.859 71.4531 140.047 70.9844C140.234 70.4219 140.375 70 140.469 69.7188C140.562 69.4375 140.656 68.9219 140.75 68.1719C140.844 67.3281 140.938 66.7188 141.031 66.3438V64.6562C141.031 64.375 141.219 63.8594 141.594 63.1094C141.594 62.9219 141.781 62.6406 142.156 62.2656C142.156 62.1719 142.25 62.0312 142.438 61.8438C142.719 61.6562 142.859 61.5156 142.859 61.4219C142.766 61.1406 142.766 60.6719 142.859 60.0156C143.047 59.2656 143.141 58.7969 143.141 58.6094C143.141 58.5156 143.422 57.625 143.984 55.9375C144.734 54.4375 145.391 53.2188 145.953 52.2812C145.953 52 145.859 51.8594 145.672 51.8594C145.578 51.5781 145.578 51.2031 145.672 50.7344C145.859 50.1719 145.953 49.7969 145.953 49.6094V49.3281C146.516 49.3281 146.938 49.1875 147.219 48.9062C147.594 48.625 147.875 48.2031 148.062 47.6406C148.25 47.0781 148.438 46.7031 148.625 46.5156C148.719 46.1406 148.906 45.3438 149.188 44.125C149.469 42.8125 149.75 41.875 150.031 41.3125C150.219 40.9375 150.453 40.2813 150.734 39.3438C151.016 38.3125 151.25 37.6094 151.438 37.2344C151.531 37.0469 151.672 36.7187 151.859 36.25C152.047 35.7813 152.188 35.4531 152.281 35.2656C152.375 35.1719 152.562 34.9844 152.844 34.7031C153.125 34.3281 153.312 34 153.406 33.7188C153.594 33.5313 153.688 33.3437 153.688 33.1562C154.25 31.75 155.422 29.8281 157.203 27.3906C157.203 27.0156 157.297 26.7344 157.484 26.5469C157.953 26.2656 158.328 25.8906 158.609 25.4219C158.797 24.9531 159.266 24.1562 160.016 23.0312C160.766 21.9062 161.281 20.9687 161.562 20.2188C161.75 20.0313 162.078 19.75 162.547 19.375C163.109 18.9063 163.531 18.5312 163.812 18.25C165.031 17.0312 165.922 16.0469 166.484 15.2969C166.859 15.2969 167.234 15.1094 167.609 14.7344C167.984 13.9844 168.453 13.3281 169.016 12.7656L169.297 12.4844C169.953 12.4844 170.609 12.0156 171.266 11.0781C171.641 11.1719 171.969 11.1719 172.25 11.0781C172.531 10.8906 172.766 10.6094 172.953 10.2344C173.141 9.85937 173.281 9.625 173.375 9.53125C173.562 9.4375 174.031 9.0625 174.781 8.40625C175.625 7.75 176.375 7.375 177.031 7.28125C178.812 6.8125 179.891 6.15625 180.266 5.3125C180.453 4.9375 180.828 4.9375 181.391 5.3125C181.578 5.5 181.766 5.59375 181.953 5.59375H182.516H182.797C182.422 6.34375 182.141 6.71875 181.953 6.71875C181.766 6.8125 181.531 6.90625 181.25 7C180.969 7.09375 180.734 7.1875 180.547 7.28125C180.078 7.46875 179.984 7.9375 180.266 8.6875C180.266 8.96875 180.453 9.48438 180.828 10.2344C182.516 9.39062 183.453 8.96875 183.641 8.96875C183.922 8.875 184.297 8.64063 184.766 8.26562C185.328 7.89062 185.656 7.65625 185.75 7.5625C188.281 6.34375 190.016 5.78125 190.953 5.875H192.922C193.766 5.875 194.328 5.59375 194.609 5.03125L195.172 5.3125C195.547 5.40625 195.828 5.40625 196.016 5.3125C196.203 5.125 196.625 5.03125 197.281 5.03125C198.781 5.03125 199.906 5.125 200.656 5.3125H200.938C201.125 4.9375 201.312 4.75 201.5 4.75C201.688 4.65625 201.922 4.70313 202.203 4.89062C202.484 4.98438 202.672 5.03125 202.766 5.03125C202.672 5.03125 202.484 5.07812 202.203 5.17188C201.922 5.26563 201.688 5.3125 201.5 5.3125C201.5 5.875 201.688 6.0625 202.062 5.875C202.531 5.6875 203.328 6.15625 204.453 7.28125C204.453 6.53125 204.547 6.15625 204.734 6.15625C204.922 6.34375 204.828 6.8125 204.453 7.5625C205.109 7.75 206.844 8.3125 209.656 9.25L209.938 9.53125C210.125 9.71875 210.453 10 210.922 10.375C211.484 10.75 211.812 11.0781 211.906 11.3594C212.469 11.9219 212.938 12.2969 213.312 12.4844C214.156 12.9531 214.578 13.4219 214.578 13.8906L214.859 14.1719C215.234 14.2656 215.516 14.5 215.703 14.875L215.984 15.5781C216.078 15.6719 216.219 15.7656 216.406 15.8594L216.828 16.2812C217.203 16.8438 217.203 17.3125 216.828 17.6875C216.828 17.875 216.969 17.9219 217.25 17.8281C217.344 17.7344 217.438 17.6875 217.531 17.6875C217.625 17.6875 217.766 17.6875 217.953 17.6875V20.2188C218.797 20.2188 219.359 20.7812 219.641 21.9062C219.641 22.0937 219.688 22.3281 219.781 22.6094C219.875 22.8906 219.922 23.0781 219.922 23.1719C220.297 23.3594 220.906 23.4531 221.75 23.4531C221.75 23.8281 221.938 24.5781 222.312 25.7031C222.688 26.8281 223.062 27.3906 223.438 27.3906C224 28.0469 224 28.6562 223.438 29.2188C224.188 29.6875 224.469 30.3438 224.281 31.1875C224 31.9375 224 32.6875 224.281 33.4375C224.656 33.0625 224.844 32.6875 224.844 32.3125C225.406 32.5 225.688 32.9688 225.688 33.7188C225.688 34.0938 225.219 34.4219 224.281 34.7031L225.406 35.8281C225.781 35.0781 225.969 34.5156 225.969 34.1406C226.156 34.4219 226.344 34.7969 226.531 35.2656C226.812 35.7344 227.047 36.1094 227.234 36.3906C226.859 37.5156 226.672 38.3594 226.672 38.9219L227.234 38.3594L227.516 38.6406C227.328 39.2969 227.609 40.1875 228.359 41.3125C228.266 41.6875 228.219 41.9688 228.219 42.1562C228.219 42.25 228.312 42.4844 228.5 42.8594C228.688 43.1406 228.828 43.375 228.922 43.5625C229.016 43.8438 229.156 44.2188 229.344 44.6875C229.531 45.1562 229.672 45.5312 229.766 45.8125C230.141 46.9375 230.328 47.6406 230.328 47.9219C230.422 48.4844 230.703 49.1875 231.172 50.0312C231.641 50.7812 231.922 51.2969 232.016 51.5781C232.953 54.0156 233.562 56.4531 233.844 58.8906C233.938 59.1719 234.078 59.6875 234.266 60.4375C234.453 61.1875 234.594 61.7031 234.688 61.9844C235.156 63.7656 235.25 66.0625 234.969 68.875C234.969 69.25 235.016 69.8594 235.109 70.7031C235.203 71.5469 235.25 72.2031 235.25 72.6719C235.25 73.2344 235.203 74.125 235.109 75.3438C235.016 76.5625 234.969 77.5 234.969 78.1562V80.9688V81.5312ZM149.188 165.062C149.656 166.844 150.219 167.922 150.875 168.297C150.312 166.891 149.844 165.812 149.469 165.062H149.188ZM151.156 171.391H151.719C151.719 171.203 151.672 170.969 151.578 170.688C151.484 170.312 151.438 170.078 151.438 169.984H151.156V171.391ZM170.141 33.4375C169.578 34 169.203 34.3281 169.016 34.4219C169.578 34.4219 169.953 34.0938 170.141 33.4375ZM154.672 100.375C154.109 100.938 153.828 101.312 153.828 101.5C153.828 101.688 154.109 101.969 154.672 102.344V100.375ZM154.672 109.234C154.578 109.328 154.391 109.469 154.109 109.656C153.922 109.844 153.781 109.984 153.688 110.078C153.875 110.266 154.109 110.359 154.391 110.359C154.391 109.984 154.578 109.609 154.953 109.234H154.672ZM153.969 117.531C153.688 117.531 153.453 117.719 153.266 118.094C153.078 118.375 153.031 118.703 153.125 119.078V120.203C152.938 120.484 153.125 121.141 153.688 122.172C153.5 122.359 153.312 122.641 153.125 123.016C153.312 123.016 153.641 123.062 154.109 123.156C154.578 123.25 155.047 123.297 155.516 123.297C155.422 123.109 155.141 122.359 154.672 121.047C154.297 120.484 154.391 119.922 154.953 119.359C154.859 119.266 154.672 119.125 154.391 118.938C154.203 118.75 154.062 118.609 153.969 118.516V117.531ZM153.406 125.969V125.688C153.406 125.312 153.312 125.125 153.125 125.125H152.844C152.938 125.219 153.031 125.359 153.125 125.547C153.219 125.734 153.312 125.875 153.406 125.969ZM153.406 127.656C152.844 128.219 152.844 128.875 153.406 129.625V127.656ZM160.719 172.656C161 173.5 161.375 174.156 161.844 174.625C162.031 175.188 162.406 175.75 162.969 176.312C163.344 176.312 163.625 176.406 163.812 176.594V175.469V174.344C162.312 174.344 161.844 173.688 162.406 172.375C161.844 171.812 161.656 171.109 161.844 170.266C162.125 169.891 162.078 169.469 161.703 169C161.422 168.531 161 168.203 160.438 168.016C160.625 168.953 160.719 170.406 160.719 172.375V172.656ZM167.328 188.688H167.891L167.047 187C166.672 186.625 166.25 186.438 165.781 186.438C165.594 186.625 165.219 186.438 164.656 185.875C164.375 185.781 163.953 185.688 163.391 185.594C162.922 185.5 162.594 185.406 162.406 185.312C162.219 185.969 162.594 186.531 163.531 187C165.031 187.938 166.297 188.5 167.328 188.688ZM164.656 176.594V178.141C165.031 177.766 165.031 177.25 164.656 176.594ZM172.531 191.359C172.719 191.547 173.047 191.781 173.516 192.062C173.984 192.344 174.312 192.578 174.5 192.766C174.031 191.828 173.375 191.359 172.531 191.359ZM181.391 191.078C181.766 190.797 182.328 190.281 183.078 189.531C183.922 188.875 184.531 188.406 184.906 188.125L184.625 187.844L184.344 188.125C184.25 188.219 183.969 188.406 183.5 188.688C183.031 189.062 182.703 189.25 182.516 189.25C182.141 189.25 181.531 189.391 180.688 189.672C179.844 189.953 179.141 190 178.578 189.812L177.875 190.234C177.781 190.234 177.547 190.281 177.172 190.375C176.891 190.469 176.656 190.516 176.469 190.516C176.375 190.516 176.188 190.469 175.906 190.375C175.625 190.281 175.438 190.234 175.344 190.234C175.25 190.141 174.875 190.234 174.219 190.516C174.594 190.609 174.969 190.703 175.344 190.797C175.719 190.984 176 191.078 176.188 191.078H181.391ZM189.406 188.969L189.969 188.406C188.469 188.406 187.625 188.781 187.438 189.531C187.812 189.531 188.094 189.438 188.281 189.25C188.656 189.25 189.031 189.156 189.406 188.969ZM209.094 136.938C208.906 137.312 208.906 137.688 209.094 138.062V136.938ZM219.078 87.0156C219.453 85.1406 219.453 83.7344 219.078 82.7969V81.5312C219.547 81.1562 219.547 80.3125 219.078 79C219.078 78.4375 218.984 78.0625 218.797 77.875C218.797 77.5 218.75 76.9375 218.656 76.1875C218.562 75.4375 218.516 74.7344 218.516 74.0781C218.516 73.4219 218.609 72.8594 218.797 72.3906V68.875C218.422 68.5 218.234 68.2188 218.234 68.0312C218.047 67.6562 217.953 67.1875 217.953 66.625C218.234 66.25 218.141 65.4062 217.672 64.0938C217.297 63.3438 217.109 62.7344 217.109 62.2656C216.922 61.1406 216.828 59.4062 216.828 57.0625V55.6562C216.641 55.4688 216.547 55.0938 216.547 54.5312C216.828 54.25 216.828 53.7812 216.547 53.125C216.078 51.25 215.797 50.0781 215.703 49.6094V48.2031C215.328 47.6406 215.141 46.9844 215.141 46.2344C215.141 46.1406 215.188 45.9531 215.281 45.6719C215.375 45.3906 215.422 45.1562 215.422 44.9688C215.047 45.1562 214.625 45.25 214.156 45.25C214.344 44.7812 214.438 44.3125 214.438 43.8438C214.531 43.375 214.531 43 214.438 42.7188C214.344 42.3437 214.25 42.1562 214.156 42.1562H212.75C212.75 41.125 213.125 40.2344 213.875 39.4844C213.781 39.3906 213.594 39.1563 213.312 38.7812C213.031 38.3125 212.75 38.0781 212.469 38.0781C212.094 38.0781 211.906 37.8906 211.906 37.5156C212.281 36.7656 212.094 35.8281 211.344 34.7031L211.062 34.4219C211.25 33.5781 210.969 32.4063 210.219 30.9062C210.031 30.5312 209.75 29.9687 209.375 29.2188C209 28.375 208.719 27.7656 208.531 27.3906C207.781 26.5469 207.266 25.7969 206.984 25.1406C206.797 24.9531 206.703 24.7656 206.703 24.5781C206.328 24.2969 205.906 23.7812 205.438 23.0312C204.969 22.2813 204.641 21.8125 204.453 21.625L204.172 21.0625C203.891 20.125 203.422 19.6562 202.766 19.6562C202.578 19.6562 202.484 19.4688 202.484 19.0938C202.109 18.4375 201.688 17.9688 201.219 17.6875C201.031 17.2188 200.797 16.8438 200.516 16.5625C200.234 16.2812 199.859 16.0469 199.391 15.8594C199.016 15.6719 198.688 15.5313 198.406 15.4375C198.125 15.3437 197.703 15.25 197.141 15.1562C196.578 14.9688 196.203 14.8281 196.016 14.7344H195.453C195.266 14.9219 195.078 15.0156 194.891 15.0156C194.516 15.1094 193.953 15.2031 193.203 15.2969C192.453 15.3906 191.891 15.4844 191.516 15.5781C191.328 16.3281 190.438 17.3125 188.844 18.5312C188.844 18.7187 188.75 18.8125 188.562 18.8125C188.375 18.8125 188.188 19 188 19.375C187.344 20.3125 186.688 20.875 186.031 21.0625C186.031 20.9687 185.984 20.875 185.891 20.7812C185.797 20.6875 185.75 20.5938 185.75 20.5C185.188 20.5 184.719 20.2188 184.344 19.6562C184.344 20.2188 184.344 20.5469 184.344 20.6406C184.438 20.7344 184.719 20.7812 185.188 20.7812C185.375 20.7812 185.562 20.6875 185.75 20.5C185.75 21.0625 185.562 21.5312 185.188 21.9062C184.906 22.1875 184.203 22.5156 183.078 22.8906C182.891 22.9844 182.609 23.1719 182.234 23.4531C181.859 23.7344 181.578 23.9219 181.391 24.0156C181.203 24.1094 180.828 24.3437 180.266 24.7188C179.703 25 179.328 25.2344 179.141 25.4219L178.859 25.7031C178.484 25.6094 177.969 25.8906 177.312 26.5469C175.812 27.6719 174.969 28.375 174.781 28.6562C174.688 28.6562 174.594 28.7031 174.5 28.7969C174.406 28.8906 174.312 28.9375 174.219 28.9375C173.844 30.0625 173.375 30.7188 172.812 30.9062H172.531C172.531 31.0937 172.484 31.2813 172.391 31.4688C172.391 31.6562 172.344 31.8438 172.25 32.0312C172.25 32.125 172.109 32.2656 171.828 32.4531C171.641 32.5469 171.5 32.6406 171.406 32.7344C171.406 32.7344 171.219 32.7812 170.844 32.875L170.422 33.1562C170.891 34.1875 170.984 34.7031 170.703 34.7031C170.328 34.9844 169.906 35.5469 169.438 36.3906C168.969 37.2344 168.547 37.7969 168.172 38.0781C168.078 38.2656 167.984 38.5938 167.891 39.0625C167.797 39.4375 167.703 39.6719 167.609 39.7656C167.234 41.4531 166.859 42.5313 166.484 43C165.641 44.7812 165.125 46.0469 164.938 46.7969C164.938 47.4531 164.656 48.2031 164.094 49.0469C163.906 49.2344 163.719 49.3281 163.531 49.3281C163.438 49.2344 163.344 49.0469 163.25 48.7656C163.156 48.4844 163.062 48.2969 162.969 48.2031C162.688 48.2969 162.5 48.4844 162.406 48.7656C162.406 49.0469 162.5 49.2344 162.688 49.3281C163.062 49.3281 163.438 49.4219 163.812 49.6094C163.812 51.3906 163.344 52.2812 162.406 52.2812V53.6875L162.688 54.25C161.938 56.5 161.562 58.1406 161.562 59.1719C161.562 59.3594 161.469 59.5469 161.281 59.7344C161.094 59.7344 160.812 59.5469 160.438 59.1719V60.5781C160.719 60.8594 160.719 61.1406 160.438 61.4219C160.438 61.5156 160.344 61.75 160.156 62.125C160.062 62.4062 160.016 62.6406 160.016 62.8281C159.922 63.1094 159.828 63.5312 159.734 64.0938C159.641 64.6562 159.547 65.0312 159.453 65.2188C159.266 65.4062 159.031 65.5469 158.75 65.6406C158.562 65.7344 158.375 65.8281 158.188 65.9219C158.094 66.0156 158.047 66.1562 158.047 66.3438C157.578 67.2812 157.484 68.125 157.766 68.875C158.047 70.4688 157.859 71.7344 157.203 72.6719C157.203 72.7656 157.156 72.9062 157.062 73.0938C156.969 73.2812 156.922 73.4219 156.922 73.5156C156.828 73.8906 156.734 74.6875 156.641 75.9062C156.641 77.0312 156.547 77.9688 156.359 78.7188C155.984 78.7188 155.984 78.9062 156.359 79.2812C156.641 79.375 156.641 79.6094 156.359 79.9844C156.172 80.3594 156.078 80.5938 156.078 80.6875L156.641 81.25V83.6406C156.641 83.9219 156.594 84.3438 156.5 84.9062C156.406 85.375 156.359 85.7031 156.359 85.8906C156.734 87.2969 156.547 88.1875 155.797 88.5625V91.0938V94.8906V95.1719L155.234 94.6094V96.5781C155.609 96.9531 155.797 97.3281 155.797 97.7031C155.797 100.516 155.891 102.25 156.078 102.906C156.078 103 156.031 103.188 155.938 103.469C155.844 103.75 155.797 103.938 155.797 104.031V107.828H154.391C155.328 108.391 155.797 109.234 155.797 110.359C155.609 111.484 155.516 113.125 155.516 115.281C155.516 115.469 155.562 115.797 155.656 116.266C155.75 116.734 155.797 117.062 155.797 117.25V120.484C155.891 120.859 155.938 121.281 155.938 121.75C155.938 122.219 155.891 122.688 155.797 123.156C155.797 123.625 155.797 124 155.797 124.281C155.609 124.375 155.281 124.469 154.812 124.562C154.344 124.656 153.969 124.75 153.688 124.844C153.875 124.938 154.297 125.312 154.953 125.969C155.609 126.625 155.703 127.094 155.234 127.375C155.141 127.469 154.859 127.703 154.391 128.078C154.016 128.359 153.781 128.594 153.688 128.781C153.594 128.969 153.453 129.344 153.266 129.906C153.078 130.469 152.891 131.031 152.703 131.594C152.609 132.156 152.562 132.672 152.562 133.141C152.562 133.703 152.75 134.078 153.125 134.266C153.406 134.547 153.406 134.828 153.125 135.109C152.75 135.672 152.75 136.75 153.125 138.344C153.594 139.75 153.781 140.688 153.688 141.156V142.703H155.234V142.422C155.234 141.859 155.422 141.766 155.797 142.141H156.359C156.172 142.328 156.078 142.609 156.078 142.984L155.797 143.266L156.078 143.547L156.922 146.922H155.797L155.938 146.078C156.125 145.516 156.078 145.234 155.797 145.234V144.672C155.797 144.109 155.516 143.828 154.953 143.828C155.047 144.203 155 144.484 154.812 144.672C154.719 144.766 154.438 144.906 153.969 145.094L153.406 145.234C153.406 145.609 153.5 145.797 153.688 145.797C154.438 145.797 154.953 146.172 155.234 146.922H154.953H155.234C154.672 147.672 154.578 148.562 154.953 149.594C154.953 149.688 155.234 149.875 155.797 150.156C155.703 149.875 155.656 149.594 155.656 149.312C155.656 148.938 155.609 148.656 155.516 148.469C155.516 148.281 155.469 148 155.375 147.625C155.281 147.25 155.234 147.016 155.234 146.922H155.797V147.766C156.359 148.609 156.359 149.312 155.797 149.875C155.328 150.812 155.328 152.266 155.797 154.234C155.797 154.703 155.891 155.312 156.078 156.062C156.359 156.719 156.453 157.234 156.359 157.609V158.172C156.734 158.641 157.109 159.719 157.484 161.406C158.516 165.156 159.078 167.078 159.172 167.172L159.734 168.297C159.734 168.016 159.781 167.547 159.875 166.891C159.969 166.234 159.969 165.719 159.875 165.344C159.875 164.875 159.734 164.406 159.453 163.938V163.094C159.453 163 159.5 162.812 159.594 162.531C159.688 162.25 159.734 162.062 159.734 161.969C160.391 161.969 160.719 162.156 160.719 162.531C160.625 162.906 160.625 163.562 160.719 164.5C160.906 165.344 160.906 165.953 160.719 166.328C160.906 166.328 161 166.422 161 166.609C161.094 166.422 161.188 166.188 161.281 165.906C161.375 165.531 161.469 165.25 161.562 165.062C162.125 165.438 162.266 166 161.984 166.75C161.797 167.406 161.75 167.828 161.844 168.016C162.219 168.203 162.594 168.297 162.969 168.297C162.969 168.859 163.062 169.422 163.25 169.984C163.062 169.984 162.781 170.172 162.406 170.547C162.781 170.922 163.344 171.297 164.094 171.672C163.812 172.234 163.531 172.656 163.25 172.938C163.25 173.5 163.531 173.781 164.094 173.781C164.844 173.781 165.219 173.969 165.219 174.344C165.219 174.719 165.641 175.984 166.484 178.141C166.578 178.234 167.047 178.516 167.891 178.984C167.984 179.078 168.172 179.172 168.453 179.266C168.828 179.359 169.109 179.453 169.297 179.547H170.703C172.203 179.172 173.281 178.984 173.938 178.984H174.219C174.406 178.891 174.688 178.75 175.062 178.562C175.531 178.281 175.906 178.141 176.188 178.141C176.469 178.141 176.891 178 177.453 177.719C178.016 177.438 178.391 177.25 178.578 177.156C178.859 177.062 179.328 176.875 179.984 176.594C180.734 176.312 181.391 176.219 181.953 176.312C182.047 176.312 182.234 176.125 182.516 175.75C182.797 175.375 183.172 175.188 183.641 175.188C183.922 175.938 183.734 176.406 183.078 176.594C182.984 176.688 182.844 176.781 182.656 176.875C182.469 176.969 182.328 177.062 182.234 177.156C181.203 177.812 180.453 178.141 179.984 178.141C179.234 178.141 178.859 178.328 178.859 178.703C178.578 178.891 178.109 179.031 177.453 179.125C176.891 179.219 176.469 179.359 176.188 179.547C175.438 179.922 174.781 180.203 174.219 180.391C173.844 180.766 173.375 180.953 172.812 180.953C172.625 180.953 172.203 180.906 171.547 180.812C170.984 180.719 170.609 180.672 170.422 180.672H167.328C167.891 181.797 168.453 182.5 169.016 182.781C169.578 182.969 170.422 182.922 171.547 182.641H171.828C172.109 182.828 173.75 183.203 176.75 183.766C176.844 184.047 177.453 184.094 178.578 183.906C179.797 183.625 180.547 183.484 180.828 183.484C181.391 183.484 181.672 183.109 181.672 182.359C181.672 181.984 181.859 181.609 182.234 181.234C183.922 178.516 185.656 176.406 187.438 174.906C187.812 174.438 188.375 173.875 189.125 173.219C189.875 172.562 190.297 172.188 190.391 172.094V170.547C190.672 170.453 190.906 170.312 191.094 170.125C191.281 169.938 191.469 169.703 191.656 169.422C191.844 169.141 191.984 168.953 192.078 168.859C193.859 167.078 194.891 165.812 195.172 165.062C196.766 162.625 197.75 160.891 198.125 159.859L198.406 159.578C198.688 159.297 199.109 158.641 199.672 157.609C200.234 156.484 200.844 155.641 201.5 155.078C201.688 155.078 201.781 154.891 201.781 154.516C201.875 153.859 202.25 152.969 202.906 151.844C203.656 150.625 204.078 149.688 204.172 149.031C204.172 147.906 204.547 146.828 205.297 145.797C205.391 145.609 205.438 145.188 205.438 144.531C205.438 143.781 205.672 143.266 206.141 142.984C206.141 142.703 206.281 142.234 206.562 141.578C206.938 140.828 207.172 140.219 207.266 139.75V137.781C207.078 137.125 207.5 136.656 208.531 136.375V135.391C209.094 135.016 209.375 134.453 209.375 133.703C209.375 133.516 209.328 133.328 209.234 133.141C209.141 132.859 209.094 132.672 209.094 132.578C209.562 129.203 210.031 127.188 210.5 126.531C210.688 126.344 210.781 125.969 210.781 125.406C210.219 124.656 210.406 123.672 211.344 122.453C211.438 122.359 211.672 122.078 212.047 121.609C212.422 121.047 212.75 120.672 213.031 120.484C213.312 120.484 213.5 120.625 213.594 120.906C213.688 121.094 213.594 121.234 213.312 121.328C213.125 121.703 212.844 122.078 212.469 122.453C212.094 122.641 211.906 123.25 211.906 124.281C211.906 125.219 211.719 125.875 211.344 126.25V126.812L211.062 127.375V127.938C211.438 128.312 211.438 128.875 211.062 129.625C210.688 130.094 210.312 130.797 209.938 131.734C209.656 132.016 209.75 132.297 210.219 132.578C210.594 132.203 211.344 130.375 212.469 127.094C212.844 125.969 213.125 125.219 213.312 124.844C213.406 124.469 213.641 123.672 214.016 122.453C214.484 121.234 214.766 120.297 214.859 119.641C216.172 116.266 216.734 113.781 216.547 112.188V111.766C216.734 111.391 216.828 110.922 216.828 110.359V108.109C216.922 107.641 217.016 106.844 217.109 105.719C217.203 104.594 217.297 103.75 217.391 103.188C217.391 102.156 217.578 100.516 217.953 98.2656C218.047 97.4219 218.188 96.1562 218.375 94.4688C218.562 92.6875 218.703 91.375 218.797 90.5312C218.797 88.9375 218.891 87.7656 219.078 87.0156ZM220.625 25.4219C220.438 26.0781 220.625 26.5469 221.188 26.8281C221.562 26.8281 221.75 26.6406 221.75 26.2656C221.469 25.7031 221.094 25.4219 220.625 25.4219ZM222.312 29.5C223.062 28.5625 222.875 27.9531 221.75 27.6719C221.75 28.1406 221.938 28.75 222.312 29.5ZM199.812 2.92188C199.438 3.57813 198.781 3.57813 197.844 2.92188L197.562 2.64062C197.562 2.26562 197.75 2.07812 198.125 2.07812H198.688C198.875 2.07812 199.203 2.17188 199.672 2.35938C200.234 2.45313 200.656 2.45313 200.938 2.35938C201.594 2.35938 202.484 2.54687 203.609 2.92188H204.172C204.359 3.10937 204.734 3.20312 205.297 3.20312C205.953 3.10937 206.516 3.10937 206.984 3.20312C207.828 3.20312 208.438 3.29688 208.812 3.48438C209 3.67187 209.656 3.76562 210.781 3.76562C210.969 3.76562 211.203 3.85938 211.484 4.04688C211.859 4.14063 212.094 4.1875 212.188 4.1875V4.46875L211.625 5.03125C210.312 5.03125 209.469 4.9375 209.094 4.75C207.781 4.1875 206.422 4.1875 205.016 4.75C205.203 4.9375 205.672 5.21875 206.422 5.59375H204.453V4.1875C203.984 3.71875 203.422 3.48438 202.766 3.48438C201.734 3.76562 200.75 3.57813 199.812 2.92188ZM233.844 42.1562C233.938 41.875 234.125 41.6875 234.406 41.5938C234.5 41.875 234.641 42.25 234.828 42.7188C235.016 43.1875 235.156 43.5625 235.25 43.8438L235.531 44.4062C235.531 45.8125 235.906 47.6406 236.656 49.8906V51.5781C236 51.5781 235.531 51.2031 235.25 50.4531C235.156 49.9844 235.062 49.2344 234.969 48.2031C234.875 47.0781 234.781 46.2812 234.688 45.8125C234.594 45.625 234.453 45.3906 234.266 45.1094C234.078 44.8281 233.938 44.5938 233.844 44.4062L234.406 43.8438C234.312 43.75 234.172 43.6562 233.984 43.5625C233.797 43.375 233.656 43.2344 233.562 43.1406C233.469 43.0469 233.422 42.9062 233.422 42.7188C233.516 42.5313 233.656 42.3437 233.844 42.1562ZM221.75 10.5156C220.531 10.5156 220.062 9.71875 220.344 8.125C222.125 9.34375 223.906 11.5469 225.688 14.7344C225.125 14.9219 224.703 14.9688 224.422 14.875C224.141 14.6875 223.953 14.5469 223.859 14.4531C223.859 14.3594 223.812 14.0781 223.719 13.6094C223.625 13.3281 223.438 12.9062 223.156 12.3438C222.875 11.7812 222.688 11.3594 222.594 11.0781C222.406 10.7031 222.125 10.5156 221.75 10.5156ZM233 35.5469C232.625 36.3906 232.906 37.1406 233.844 37.7969V38.9219V39.7656V40.75L233 41.5938C232.625 41.5938 232.438 41.3125 232.438 40.75C232.438 40.4688 232.484 40.1406 232.578 39.7656C232.672 39.2969 232.719 38.9219 232.719 38.6406C231.688 38.2656 231.172 37.2344 231.172 35.5469C231.172 34.9844 231.453 34.7031 232.016 34.7031C232.297 34.7031 232.531 34.7969 232.719 34.9844C233 35.0781 233.094 35.2656 233 35.5469ZM236.094 54.5312C236.281 54.3438 236.328 54.0156 236.234 53.5469C236.234 53.0781 236.281 52.6562 236.375 52.2812C236.562 52 236.75 51.8594 236.938 51.8594C237.312 52.4219 237.5 53.2188 237.5 54.25C237.688 54.8125 237.781 55.6562 237.781 56.7812C237.781 57.1562 237.688 57.4375 237.5 57.625C237.219 58.375 237.406 58.8906 238.062 59.1719C238.625 59.7344 238.531 60.3906 237.781 61.1406C237.688 60.7656 237.406 60.2031 236.938 59.4531C236.562 58.6094 236.469 57.9062 236.656 57.3438V56.7812C237.219 56.2188 237.125 55.6562 236.375 55.0938L236.094 54.5312ZM195.734 185.875C195.922 185.875 196.438 185.641 197.281 185.172C198.125 184.609 198.875 184.375 199.531 184.469C199.531 184.188 199.719 183.953 200.094 183.766V185.031C199.719 185.219 199.344 185.5 198.969 185.875H197.281C196.812 185.875 196.391 186.438 196.016 187.562C195.266 186.625 195.172 186.062 195.734 185.875ZM216.828 6.15625C216.359 6.34375 215.656 6.29688 214.719 6.01562C213.875 5.64062 213.312 5.5 213.031 5.59375C213.031 5.40625 212.984 5.17188 212.891 4.89062C212.797 4.51562 212.75 4.28125 212.75 4.1875C212.844 4.1875 212.938 4.14063 213.031 4.04688C213.125 3.85938 213.219 3.76562 213.312 3.76562H213.594C215.375 4.89062 216.359 5.5 216.547 5.59375C216.734 5.59375 216.828 5.78125 216.828 6.15625ZM217.953 7.84375C217.391 7.84375 217.109 7.375 217.109 6.4375C217.109 6.15625 217.109 5.96875 217.109 5.875C217.484 6.15625 217.953 6.48437 218.516 6.85938C219.078 7.14062 219.453 7.375 219.641 7.5625V8.96875C219.266 9.15625 218.891 8.875 218.516 8.125C218.422 8.125 218.328 8.07813 218.234 7.98438C218.141 7.89062 218.047 7.84375 217.953 7.84375ZM228.922 26.2656C229.203 24.7656 229.016 23.3125 228.359 21.9062C228.172 21.7188 228.078 21.3438 228.078 20.7812C228.641 21.1563 229.062 21.9531 229.344 23.1719C229.625 24.2969 229.672 25.3281 229.484 26.2656H228.922ZM225.406 15.8594C225.594 15.5781 225.922 15.3906 226.391 15.2969C226.391 15.3906 226.531 15.7188 226.812 16.2812C227.188 16.75 227.328 17.0781 227.234 17.2656C227.234 17.4531 227.047 17.875 226.672 18.5312C226.578 18.25 226.344 17.8281 225.969 17.2656C225.688 16.6094 225.5 16.1406 225.406 15.8594ZM188.281 3.20312C188.188 3.57813 188.047 3.8125 187.859 3.90625C187.766 4 187.578 4.04688 187.297 4.04688C187.109 4.04688 186.969 4.09375 186.875 4.1875C186.5 4.5625 185.938 4.9375 185.188 5.3125C185.188 4.1875 185.656 3.48438 186.594 3.20312C187.156 2.92188 187.719 2.92188 188.281 3.20312ZM203.328 181.797H204.172C204.172 182.547 204.078 182.922 203.891 182.922C203.234 183.109 202.625 183.625 202.062 184.469C202.062 182.875 202.484 181.984 203.328 181.797ZM189.969 3.20312L189.688 3.34375C189.406 3.53125 189.172 3.625 188.984 3.625C188.797 3.53125 188.562 3.29688 188.281 2.92188C188.75 2.92188 189.312 2.78125 189.969 2.5C190.719 2.21875 191.328 2.07812 191.797 2.07812C191.328 2.82812 190.719 3.20312 189.969 3.20312ZM231.172 29.7812C230.703 29.5938 230.375 29.125 230.188 28.375C230.094 27.625 229.859 27.2031 229.484 27.1094L229.766 26.8281H230.609C230.609 26.9219 230.844 27.3438 231.312 28.0938C231.781 28.8437 231.734 29.4062 231.172 29.7812ZM238.484 66.625L238.766 66.9062C238.109 67.375 237.781 68.125 237.781 69.1562C237.781 70.1875 237.688 70.9844 237.5 71.5469C236.656 71.2656 236.469 70.8906 236.938 70.4219C237.688 69.9531 237.875 69.3438 237.5 68.5938C237.312 68.125 237.641 67.4688 238.484 66.625ZM142.859 43.8438C142.391 43.8438 141.969 43.9375 141.594 44.125C141.781 43.5625 141.875 42.9062 141.875 42.1562C141.875 41.7812 142.297 41.5938 143.141 41.5938C143.234 41.7812 143.188 42.1562 143 42.7188C142.906 43.2812 142.859 43.6562 142.859 43.8438ZM136.109 83.6406C136.016 83.8281 136.016 84.2031 136.109 84.7656C136.297 85.3281 136.297 85.7031 136.109 85.8906C135.547 84.2031 135.453 83.0781 135.828 82.5156C136.016 82.8906 136.109 83.2656 136.109 83.6406ZM230.328 29.7812C231.828 30.3438 232.016 31.1875 230.891 32.3125C230.703 32.125 230.562 31.7031 230.469 31.0469C230.469 30.3906 230.422 29.9687 230.328 29.7812ZM197.281 2.92188C196.906 2.82812 196.531 2.82812 196.156 2.92188C195.781 3.01563 195.406 3.01563 195.031 2.92188C194.75 2.73438 194.516 2.45313 194.328 2.07812C195.547 2.07812 196.531 2.17188 197.281 2.35938V2.92188ZM237.5 77.875C236.469 77.5 236.094 77.0312 236.375 76.4688C236.75 76.2812 236.938 75.6719 236.938 74.6406C236.938 74.4531 237.031 74.3594 237.219 74.3594C237.594 74.4531 237.641 74.7812 237.359 75.3438C237.172 75.8125 237.125 76.0938 237.219 76.1875L237.359 76.75C237.453 77.125 237.5 77.5 237.5 77.875ZM207.266 180.109C207.453 179.734 207.828 179.359 208.391 178.984C208.953 178.516 209.281 178.234 209.375 178.141C209.656 178.703 209.562 179.078 209.094 179.266C208.906 179.359 208.391 179.828 207.547 180.672C207.547 180.578 207.5 180.484 207.406 180.391C207.312 180.297 207.266 180.203 207.266 180.109ZM135.266 81.8125C135.266 81.7188 135.219 81.5781 135.125 81.3906C135.031 81.2031 134.984 81.0625 134.984 80.9688C135.266 80.7812 135.266 80.2188 134.984 79.2812C135.359 79.2812 135.734 79.5625 136.109 80.125C136.109 80.4062 135.828 80.9688 135.266 81.8125ZM209.938 178.703C209.938 178.422 209.984 178 210.078 177.438C210.172 176.781 210.219 176.312 210.219 176.031C211.25 177.062 211.25 177.953 210.219 178.703H209.938ZM193.766 1.79688C193.672 2.35938 193.531 2.6875 193.344 2.78125C193.25 2.78125 192.922 2.73438 192.359 2.64062C192.734 1.89063 193.203 1.60938 193.766 1.79688ZM135.828 73.7969C136.391 74.6406 136.297 75.4375 135.547 76.1875C135.734 75.9062 135.734 75.4844 135.547 74.9219C135.453 74.2656 135.547 73.8906 135.828 73.7969ZM183.641 5.59375H183.078L183.641 5.03125C183.828 5.03125 184.109 5.07812 184.484 5.17188C184.859 5.26563 185.094 5.3125 185.188 5.3125C185 5.5 184.484 5.59375 183.641 5.59375ZM141.031 45.8125C140.562 46 140.188 45.8125 139.906 45.25C139.906 44.6875 140.188 44.4062 140.75 44.4062C140.938 44.7812 141.031 45.25 141.031 45.8125ZM136.531 70.9844L135.828 70.4219C135.828 70.2344 135.875 70 135.969 69.7188C136.062 69.4375 136.109 69.25 136.109 69.1562C136.578 69.625 136.812 69.9531 136.812 70.1406C136.812 70.2344 136.766 70.375 136.672 70.5625C136.578 70.75 136.531 70.8906 136.531 70.9844ZM144.828 37.2344C144.734 37.3281 144.547 37.6094 144.266 38.0781C143.984 38.5469 143.797 38.9219 143.703 39.2031C143.703 38.0781 143.984 37.4219 144.547 37.2344H144.828ZM140.469 46.5156C140.656 46.8906 140.375 47.2656 139.625 47.6406C139.438 47.2656 139.719 46.8906 140.469 46.5156ZM236.656 80.4062C236.938 80.5 237.078 80.5938 237.078 80.6875C237.172 80.7812 237.172 80.9219 237.078 81.1094C237.078 81.2969 237.125 81.5312 237.219 81.8125C236.375 81.3438 236.188 80.875 236.656 80.4062ZM149.188 32.3125C148.812 32.3125 148.625 32.2187 148.625 32.0312C148.625 31.6562 148.812 31.2813 149.188 30.9062C149.375 30.9062 149.469 31 149.469 31.1875C149.469 31.75 149.375 32.125 149.188 32.3125ZM233 33.1562C232.906 33.3437 232.812 33.625 232.719 34C232.625 34.2812 232.531 34.5156 232.438 34.7031C232.062 33.9531 231.828 33.5313 231.734 33.4375C231.828 33.4375 232.016 33.3906 232.297 33.2969C232.578 33.2031 232.812 33.1562 233 33.1562ZM135.266 91.0938C135.266 90.9062 135.453 90.8125 135.828 90.8125V91.9375C135.453 91.9375 135.266 91.6562 135.266 91.0938ZM236.656 73.2344C236.656 72.8594 236.844 72.6719 237.219 72.6719C237.312 72.6719 237.406 72.7656 237.5 72.9531C237.688 73.0469 237.875 73.1406 238.062 73.2344C237.688 73.4219 237.406 73.5156 237.219 73.5156L236.656 73.2344ZM136.109 69.1562C135.734 69.1562 135.547 68.7812 135.547 68.0312C135.922 68.0312 136.109 68.4062 136.109 69.1562ZM136.109 69.1562V68.875V69.1562ZM136.812 65.5C136.344 65.0312 136.109 64.5625 136.109 64.0938H136.531C136.531 64.4688 136.625 64.9375 136.812 65.5ZM235.812 85.8906H236.094H236.375C236.188 85.8906 236.094 86.1719 236.094 86.7344C236.094 86.6406 236.047 86.5 235.953 86.3125C235.859 86.125 235.812 85.9844 235.812 85.8906ZM146.234 33.7188C146.984 34 147.172 34.2812 146.797 34.5625L146.234 34.7031C145.953 34.7031 145.953 34.375 146.234 33.7188ZM211.625 175.469H211.906V176.312H211.625V175.469ZM216.266 172.094C216.453 171.812 216.641 171.672 216.828 171.672C216.828 171.766 216.781 171.953 216.688 172.234C216.594 172.422 216.547 172.562 216.547 172.656H216.266V172.094ZM213.031 175.469C213.031 175.094 213.125 174.812 213.312 174.625C213.594 175.188 213.5 175.469 213.031 175.469ZM139.062 51.8594H138.781H138.5L138.781 51.5781L139.062 51.8594ZM236.938 79.5625L237.219 79.2812C237.312 79.2812 237.406 79.3281 237.5 79.4219C237.594 79.5156 237.688 79.5625 237.781 79.5625C237.688 79.5625 237.594 79.6094 237.5 79.7031C237.406 79.7969 237.312 79.8438 237.219 79.8438L236.938 79.5625ZM136.109 72.1094V72.6719V72.9531L135.828 72.6719C135.828 72.2969 135.922 72.1094 136.109 72.1094ZM155.516 136.094C155.703 136 155.797 135.859 155.797 135.672C155.984 136.234 155.891 137.031 155.516 138.062C155.516 138.156 155.469 138.297 155.375 138.484C155.281 138.672 155.234 138.812 155.234 138.906C155.047 139.281 154.625 139.375 153.969 139.188C154.156 138.719 154.25 138.25 154.25 137.781C154.344 137.219 154.344 136.75 154.25 136.375C154.156 136 154.016 135.531 153.828 134.969C153.734 134.406 153.688 133.984 153.688 133.703C154.156 133.703 154.578 133.516 154.953 133.141C155.609 133.609 155.609 134.172 154.953 134.828C155.234 134.922 155.328 135.156 155.234 135.531C155.234 135.812 155.328 136 155.516 136.094ZM185.188 176.031C185 175.844 184.719 175.375 184.344 174.625C184.719 174.438 185.375 173.922 186.312 173.078C187.25 172.234 188.094 171.766 188.844 171.672C188.469 172.516 187.25 173.969 185.188 176.031ZM155.516 131.734C155.422 131.922 155.281 132.109 155.094 132.297C155 132.391 154.953 132.484 154.953 132.578C154.391 132.109 154.062 131.828 153.969 131.734C153.969 131.547 154.109 131.172 154.391 130.609C154.391 130.797 154.438 131.031 154.531 131.312C154.625 131.594 154.672 131.828 154.672 132.016C155.047 132.016 155.328 131.922 155.516 131.734ZM157.203 151C157.016 151.375 156.922 151.844 156.922 152.406C156.734 152.219 156.5 152.078 156.219 151.984C156.031 151.797 155.891 151.656 155.797 151.562C155.984 151.469 156.219 151.375 156.5 151.281C156.781 151.188 157.016 151.094 157.203 151ZM156.359 138.625C156.547 138.625 156.828 138.812 157.203 139.188L156.922 139.469C156.734 139.469 156.453 139.281 156.078 138.906L156.359 138.625ZM155.797 140.594C155.047 140.594 154.672 140.312 154.672 139.75C155.047 139.938 155.422 140.219 155.797 140.594ZM158.328 160.281C158.422 160.188 158.562 160.047 158.75 159.859C158.938 159.578 159.078 159.391 159.172 159.297C159.359 159.953 159.359 160.562 159.172 161.125L158.328 160.281ZM157.203 159.016C157.203 158.266 157.484 157.891 158.047 157.891C158.047 158.453 157.766 158.828 157.203 159.016ZM156.641 154.516C157.016 154.703 157.203 154.984 157.203 155.359C157.203 155.547 157.109 155.641 156.922 155.641C156.922 155.547 156.875 155.406 156.781 155.219C156.688 154.938 156.641 154.703 156.641 154.516ZM156.922 149.031C157.203 149.594 157.109 149.969 156.641 150.156C156.641 149.594 156.734 149.219 156.922 149.031ZM157.766 157.328L157.203 156.766H157.484C157.859 156.766 158.047 156.859 158.047 157.047L157.766 157.328ZM159.172 161.688C159.172 161.5 159.266 161.406 159.453 161.406C159.453 161.5 159.5 161.594 159.594 161.688C159.688 161.781 159.734 161.875 159.734 161.969L159.172 161.688Z" fill="#2B09FB"/>
</svg>
