<svg xmlns="http://www.w3.org/2000/svg" xml:space="preserve" viewBox="0 0 512 512">
  <circle cx="256" cy="256" r="256" fill="#96ede5"/>
  <path fill="#26d4cb" d="M256.002 512c128.369 0 234.663-94.489 253.147-217.707l-176.75-176.749-61.457 55.134L85.335 341.333 256.002 512z"/>
  <circle cx="276.532" cy="177.459" r="81.939" fill="#fe5c69"/>
  <path fill="#e32531" d="M276.527 95.515c-.428 0-.848.026-1.274.033v163.814c.426.007.846.033 1.274.033 45.254 0 81.939-36.685 81.939-81.939 0-45.255-36.687-81.941-81.939-81.941z"/>
  <path fill="#935635" d="m167.274 341.333 133.287-199.931L433.85 341.333z"/>
  <path fill="#804000" d="M301.111 142.224v199.109H433.85z"/>
  <path fill="#fffcff" d="M245.11 224.577c15.869 10.6 34.935 16.791 55.451 16.791s39.583-6.191 55.451-16.791l-55.451-83.175-55.451 83.175z"/>
  <path fill="#fcf2cf" d="M301.111 142.224v99.131c20.306-.109 39.176-6.275 54.901-16.779l-54.901-82.352z"/>
  <path fill="#b97850" d="m85.335 341.333 109.251-163.878 109.252 163.878z"/>
  <path fill="#914e31" d="m194.586 177.455-.357.538v163.34h109.609z"/>
  <path fill="#fffcff" d="M149.135 245.632c13.007 8.688 28.636 13.762 45.451 13.762s32.444-5.073 45.451-13.762l-45.451-68.177-45.451 68.177z"/>
  <path fill="#fcf2cf" d="m240.038 245.631-45.451-68.177-.359.538v81.394c.121 0 .238.007.359.007 16.816.001 32.444-5.072 45.451-13.762z"/>
</svg>