<svg xmlns="http://www.w3.org/2000/svg" xml:space="preserve" viewBox="0 0 512 512">
  <g fill="#e03a00">
    <circle cx="256" cy="256" r="256"/>
    <circle cx="256" cy="256" r="256"/>
  </g>
  <path fill="#c92f00" d="M295 509c104-16 187-94 210-195L266 75l-5 98 51 51-132 170 115 115z"/>
  <path fill="#ffedb5" d="M266 92V75h-20v17c0 14-3 28-9 41l-10 20h58l-10-20c-6-13-9-27-9-41z"/>
  <path fill="#fee187" d="M275 133c-6-13-9-27-9-41V75h-10v78h29l-10-20z"/>
  <path fill="#ffc61b" d="M209 199h94c6 0 10-4 10-10v-37c0-5-4-10-10-10h-94c-6 0-10 5-10 10v37c0 6 4 10 10 10z"/>
  <path fill="#eaa22f" d="M303 142h-47v57h47c6 0 10-4 10-10v-37c0-5-4-10-10-10z"/>
  <path fill="#fff" d="M194 398h124c13 0 23-10 23-23V194c0-13-10-23-23-23H194c-13 0-23 10-23 23v181c0 13 10 23 23 23z"/>
  <path fill="#d0d1d3" d="M318 171h-62v227h62c13 0 23-10 23-23V194c0-13-10-23-23-23z"/>
  <path fill="#ffc61b" d="M199 228h114v113H199z"/>
  <path fill="#eaa22f" d="M256 228h57v113h-57z"/>
</svg>