<svg xmlns="http://www.w3.org/2000/svg" xml:space="preserve" viewBox="0 0 512 512">
  <circle cx="256" cy="256" r="256" fill="#ff5419"/>
  <path fill="#bc2e0d" d="M509 218 407 116 95 402l103 103a257 257 0 0 0 311-287z"/>
  <path fill="#ffedb5" d="m431 140-40-41c-8-7-20-8-28-1L161 269l-16 83-16 16-34 34 50 17 17-18 16-15 83-17 171-202c7-8 6-20-1-27z"/>
  <path fill="#fee187" d="m431 140-20-20-293 290 27 9 17-18 16-15 83-17 171-202c7-8 6-20-1-27z"/>
  <path fill="#ffc61b" d="M261 369 161 269 363 98c8-7 20-6 28 1l40 41c7 7 8 19 1 27L261 369z"/>
  <path fill="#e5ab07" d="m431 140-20-20-201 198 51 51 171-202c7-8 6-20-1-27z"/>
  <path fill="#ffc61b" d="m95 402 50 17 16-17-33-33z"/>
  <path fill="#e5ab07" d="m118 410 27 9 16-17-17-17z"/>
</svg>