<svg xmlns="http://www.w3.org/2000/svg" xml:space="preserve" viewBox="0 0 512 512">
  <circle cx="256" cy="256" r="256" fill="#ff6262"/>
  <path fill="#ff0f27" d="m512 270-64-64-26 5L261 51l-6 152L64 363l144 145a257 257 0 0 0 304-238z"/>
  <path fill="#383632" d="M256 207c-4 0-8-4-8-8V57a8 8 0 0 1 16 0v142c0 4-4 8-8 8z"/>
  <path fill="#282623" d="M256 49h-1v158h1c4 0 8-4 8-8V57c0-4-4-8-8-8z"/>
  <path fill="#e5e5e5" d="M431 370H81c-13 0-24-11-24-24V223c0-13 11-24 24-24h350c13 0 24 11 24 24v123c0 13-11 24-24 24z"/>
  <path fill="#d3d3d3" d="M431 199H255v171h176c13 0 24-11 24-24V223c0-13-11-24-24-24z"/>
  <path fill="#383632" d="M118 229c0-4-3-7-7-7H95c-4 0-8 3-8 7v16c0 4 4 8 8 8h16c4 0 7-4 7-8v-16zm62 0c0-4-4-7-8-7h-16c-4 0-7 3-7 7v16c0 4 3 8 7 8h16c4 0 8-4 8-8v-16zm53-7h-15c-5 0-8 3-8 7v16c0 4 3 8 8 8h15c4 0 8-4 8-8v-16c0-4-4-7-8-7zm-92 46h-16c-4 0-7 4-7 8v15c0 5 3 8 7 8h16c4 0 8-3 8-8v-15c0-4-4-8-8-8zm61 0h-15c-5 0-8 4-8 8v15c0 5 3 8 8 8h15c5 0 8-3 8-8v-15c0-4-3-8-8-8zm62 0h-16c-4 0-8 4-8 8v15c0 5 4 8 8 8h16c4 0 7-3 7-8v-15c0-4-3-8-7-8z"/>
  <path fill="#282623" d="M264 268h-9v31h9c4 0 7-3 7-8v-15c0-4-3-8-7-8zm38-39c0-4-3-7-8-7h-15c-4 0-8 3-8 7v16c0 4 4 8 8 8h15c5 0 8-4 8-8v-16zm61 0c0-4-3-7-7-7h-16c-4 0-8 3-8 7v16c0 4 4 8 8 8h16c4 0 7-4 7-8v-16zm54-7h-16c-4 0-7 3-7 7v16c0 4 3 8 7 8h16c4 0 8-4 8-8v-16c0-4-4-7-8-7zm-92 46h-16c-4 0-7 4-7 8v15c0 5 3 8 7 8h16c4 0 8-3 8-8v-15c0-4-4-8-8-8zm61 0h-15c-5 0-8 4-8 8v15c0 5 3 8 8 8h15c4 0 8-3 8-8v-15c0-4-4-8-8-8z"/>
  <g fill="#383632">
    <path d="M171 328h170v11H171z"/>
    <path d="M341 347H171c-5 0-8-4-8-8v-11c0-4 3-7 8-7h170c5 0 8 3 8 7v11c0 4-3 8-8 8z"/>
  </g>
  <path fill="#282623" d="M341 321h-86v26h86c5 0 8-4 8-8v-11c0-4-3-7-8-7z"/>
</svg>