<svg xmlns="http://www.w3.org/2000/svg" xml:space="preserve" viewBox="0 0 512 512">
  <circle cx="285.867" cy="341.333" r="170.667" fill="#aff0e8"/>
  <g fill="#74dbc9">
    <path d="M302.933 494.933c-94.257 0-170.667-76.41-170.667-170.667 0-42.785 15.745-81.891 41.756-111.844-36.035 31.292-58.822 77.439-58.822 128.911C115.2 435.59 191.61 512 285.867 512c51.472 0 97.62-22.787 128.911-58.822-29.953 26.01-69.06 41.755-111.845 41.755z"/>
    <path d="m380.78 468.543-36.615-21.97-7.098-21.291V358.4a8.524 8.524 0 0 0-1.434-4.734l-13.186-19.779 20.653-20.654a8.535 8.535 0 0 0 2.172-8.378l-14.822-51.877 17.677-5.892c2.922-.839 33.517-9.713 50.589-17.98 5.339-2.585 6.42-9.989 2.027-13.989-31.475-28.663-72.273-44.45-114.875-44.45-47.903 0-93.893 20.32-126.178 55.751a8.533 8.533 0 0 0-1.683 8.743l8.938 23.835a8.533 8.533 0 0 0 7.99 5.537h45.05l6.589 19.765a8.53 8.53 0 0 0 4.279 4.933l15.265 7.633 48.284 64.38v36.288l-31.634 31.634a8.572 8.572 0 0 0-1.067 1.3l-17.067 25.6a8.53 8.53 0 0 0-1.297 6.254l7.325 40.448a8.532 8.532 0 0 0 6.996 6.897 172.43 172.43 0 0 0 28.21 2.334c34.141 0 67.092-10.05 95.293-29.064a8.533 8.533 0 0 0-.381-14.392z"/>
  </g>
  <path fill="#74dbc9" d="M437.015 262.034c-2.629-5.004-9.584-6.068-13.587-2.064l-32.662 32.662a8.531 8.531 0 0 0 0 12.067l11.834 11.834-21.159 28.213a8.533 8.533 0 0 0 .793 11.154l14.567 14.566V384c0 2.263.899 4.434 2.499 6.034l26.979 26.979c4.101 4.102 11.248 2.86 13.738-2.364 10.961-23.003 16.517-47.67 16.517-73.316-.001-27.587-6.751-55.009-19.519-79.299zm-208.183 62.671-25.6-8.533a8.533 8.533 0 0 0-2.699-.438H178.24l4.789-14.368c1.678-5.034-1.78-10.509-7.037-11.166l-43.927-5.49a8.529 8.529 0 0 0-9.207 5.936c-5.082 16.355-7.658 33.409-7.658 50.688 0 44.032 16.721 85.833 47.082 117.701 2.382 2.5 6.141 3.319 9.348 2.037l23.539-9.415a8.537 8.537 0 0 0 4.463-4.107l7.914-15.828 16.087-16.087c3.751-3.751 3.108-10.195-1.3-13.134l-18.094-12.063 20.188-26.917a8.54 8.54 0 0 0 1.268-2.421l8.533-25.6a8.533 8.533 0 0 0-5.396-10.795zm-69.143-98.287a8.522 8.522 0 0 0-1.893 8.037 171.099 171.099 0 0 1 16.091-21.879 169.393 169.393 0 0 0-14.198 13.842z"/>
  <path fill="#6ac8b7" d="m247.579 485.749 3.082 17.02a8.532 8.532 0 0 0 6.996 6.897 172.43 172.43 0 0 0 28.21 2.334c34.141 0 67.092-10.05 95.293-29.064a8.533 8.533 0 0 0 3.76-7.301 8.54 8.54 0 0 0-.199-1.545c-24.286 13.286-52.152 20.844-81.787 20.844-19.377-.001-37.996-3.236-55.355-9.185z"/>
  <path fill="#74dbc9" d="M437.015 262.034c-2.629-5.004-9.584-6.068-13.587-2.064l-32.662 32.662a8.531 8.531 0 0 0 0 12.067l11.834 11.834-21.159 28.213a8.533 8.533 0 0 0 .793 11.154l14.567 14.566V384c0 2.263.899 4.434 2.499 6.034l26.979 26.979c4.101 4.102 11.248 2.86 13.738-2.364 10.961-23.003 16.517-47.67 16.517-73.316-.001-27.587-6.751-55.009-19.519-79.299z"/>
  <path fill="#6ac8b7" d="M132.267 324.267c0-13.409 1.551-26.455 4.476-38.974l-4.678-.585a8.529 8.529 0 0 0-9.207 5.936c-5.081 16.356-7.657 33.41-7.657 50.689 0 44.032 16.721 85.833 47.082 117.701 2.382 2.5 6.141 3.319 9.348 2.037l19.546-7.818c-36.087-31.291-58.91-77.474-58.91-128.986z"/>
  <path fill="#fdd042" d="M337.067 0c-47.053 0-85.333 38.281-85.333 85.333 0 19.303 13.401 49.215 39.83 88.902 19.209 28.845 38.096 52.052 38.891 53.025 3.361 4.119 9.861 4.119 13.222 0 .795-.974 19.683-24.181 38.891-53.025C409 134.548 422.4 104.637 422.4 85.333 422.4 38.281 384.119 0 337.067 0z"/>
  <path fill="#f2c127" d="M308.63 174.236c-26.43-39.687-39.83-69.599-39.83-88.902 0-44.173 33.739-80.61 76.8-84.906A85.635 85.635 0 0 0 337.067 0c-47.053 0-85.333 38.281-85.333 85.333 0 19.303 13.401 49.215 39.83 88.902 19.209 28.845 38.096 52.052 38.891 53.025 3.361 4.119 9.861 4.119 13.222 0 .137-.166.814-.999 1.922-2.387-5.361-6.713-21.05-26.732-36.969-50.637z"/>
  <circle cx="337.067" cy="85.333" r="51.2" fill="#ebebec"/>
  <path fill="#d7d8d9" d="M345.6 128c-28.277 0-51.2-22.923-51.2-51.2 0-11.964 4.114-22.96 10.991-31.676-11.886 9.376-19.524 23.895-19.524 40.209 0 28.277 22.923 51.2 51.2 51.2 16.314 0 30.833-7.638 40.209-19.524C368.56 123.886 357.564 128 345.6 128z"/>
  <path fill="#606268" d="M320 93.867c-3.529 0-6.787-2.268-8.004-5.58-1.213-3.299-.235-7.166 2.461-9.444 2.789-2.358 6.879-2.692 10-.783 3.012 1.843 4.605 5.474 3.907 8.938-.796 3.94-4.331 6.869-8.364 6.869zm34.133 0c-3.534 0-6.785-2.261-8.004-5.58-1.236-3.362-.194-7.281 2.591-9.55 2.734-2.227 6.681-2.548 9.725-.763 3.046 1.788 4.719 5.375 4.082 8.859-.734 4.016-4.294 7.034-8.394 7.034z"/>
  <path fill="#e5563c" d="M157.867 85.333c-56.464 0-102.4 45.936-102.4 102.4 0 23.175 16.253 59.988 48.307 109.417 23.412 36.103 47.159 66.24 47.396 66.54 3.363 4.256 10.029 4.256 13.393 0 .237-.3 23.984-30.436 47.396-66.54 32.054-49.428 48.307-86.241 48.307-109.417.001-56.464-45.935-102.4-102.399-102.4z"/>
  <path fill="#cf442b" d="M120.841 297.15c-32.054-49.428-48.307-86.241-48.307-109.417 0-53.589 41.381-97.691 93.867-102.042-2.815-.234-5.66-.358-8.533-.358-56.464 0-102.4 45.936-102.4 102.4 0 23.175 16.253 59.988 48.307 109.417 23.412 36.103 47.159 66.24 47.396 66.54 3.363 4.256 10.029 4.256 13.393 0 .038-.048.688-.873 1.837-2.357-6.017-7.774-25.904-33.871-45.56-64.183z"/>
  <circle cx="157.867" cy="187.733" r="68.267" fill="#ebebec"/>
  <path fill="#d7d8d9" d="M174.933 247.467c-37.702 0-68.267-30.564-68.267-68.267 0-23.311 11.692-43.882 29.522-56.198-27.072 9.063-46.589 34.61-46.589 64.732 0 37.702 30.564 68.267 68.267 68.267a67.934 67.934 0 0 0 38.745-12.068 68.202 68.202 0 0 1-21.678 3.534z"/>
  <path fill="#606268" d="M157.867 196.267H156.8a8.533 8.533 0 0 1 0-17.066h1.067a8.533 8.533 0 0 1 0 17.066zm25.6 0c-3.511 0-6.73-1.158-8.528-4.389-1.906-3.425-1.17-7.837 1.73-10.467 2.443-2.215 6.271-2.802 9.387-1.811 3.711 1.18 6.193 4.849 5.924 8.731-.305 4.411-4.092 7.936-8.513 7.936zm-51.2 0H131.2a8.533 8.533 0 0 1 0-17.066h1.067a8.533 8.533 0 0 1 0 17.066z"/>
</svg>