<svg xmlns="http://www.w3.org/2000/svg" xml:space="preserve" viewBox="0 0 512 512">
  <circle cx="256" cy="256" r="256" fill="#c2001b"/>
  <path fill="#940030" d="M301 89c-21 43-40 90-85 107-20 8-46 10-63 27l8 7c5 28-5 55 11 79 20 35 63 37 93 63-2 0-4-4-6 0-1 18 7 41-3 53-14 13-33 17-52 21l66 66c121-7 220-97 239-215L301 89z"/>
  <path fill="#ffc61b" d="M355 200H157c-4 0-8 4-8 8v50c0 56 44 102 99 106v46h-30a21 21 0 0 0 0 42h76a21 21 0 0 0 0-42h-30v-46c55-4 99-50 99-106v-50c0-4-4-8-8-8zm-8 58a91 91 0 0 1-182 0v-42h182v42z"/>
  <path fill="#d48b07" d="M355 200H255v16h92v42c0 50-41 91-91 91h-1v103h39a21 21 0 0 0 0-42h-30v-46c55-4 99-50 99-106v-50c0-4-4-8-8-8z"/>
  <path fill="#ffedb5" d="M256 323c35 0 63-28 63-63V134a63 63 0 0 0-126 0v126c0 35 28 63 63 63z"/>
  <path fill="#fde085" d="M256 71h-1v252h1c35 0 63-28 63-63V134c0-35-28-63-63-63z"/>
  <path fill="#ffc61b" d="M193 231v29a63 63 0 0 0 126 0v-29H193z"/>
  <path fill="#d48b07" d="M255 231v92h1c35 0 63-28 63-63v-29h-64z"/>
</svg>