<svg xmlns="http://www.w3.org/2000/svg" xml:space="preserve" viewBox="0 0 496.2 496.2">
  <path fill="#25b7d3" d="M496 248a248 248 0 1 0-496 0 248 248 0 0 0 496 0z"/>
  <path fill="#eaeada" d="M237 121 57 174l-2 4 59 198 4 2 180-54c2 0 3-2 2-4l-59-197c0-2-2-3-4-2z"/>
  <path fill="#3a3a38" d="m270 274-155 47-41-135 156-47z"/>
  <path fill="#4f4f4e" d="M115 321 74 186l156-46z"/>
  <path fill="#fff" d="m439 199-165-89c-1-1-3 0-4 1l-98 182c-1 1 0 3 1 4l165 89c2 1 4 0 5-1l98-181c0-2 0-4-2-5z"/>
  <path fill="#51514f" d="M344 344h-1l-81-43c-2-1-2-3-1-4 0-1 2-2 3-1l81 43c1 1 2 2 1 4l-2 1z"/>
  <path fill="#3a3a38" d="m353 331-142-77 67-124 142 77z"/>
  <path fill="#4f4f4e" d="m211 254 67-124 143 77z"/>
</svg>