<svg xmlns="http://www.w3.org/2000/svg" xml:space="preserve" viewBox="0 0 496.2 496.2">
  <path fill="#53B18D" d="M496 248a248 248 0 1 0-496 0 248 248 0 0 0 496 0z"/>
  <g fill="#ea4949">
    <path d="M253 186c70-13 133 18 171 59l19-73c-36-46-109-70-187-56C152 135 83 246 95 324c3-71 65-121 158-138z"/>
    <path d="m95 324 1-16-2 9 1 7zm-4 12zm4-48c-5 16-6 33-4 48 0-6 1-13 3-19-1-9-1-19 1-29z"/>
  </g>
  <path fill="#e5cf0a" d="M261 222c59-4 115 43 146 88l21-79c-38-42-102-76-175-63-93 17-155 85-158 156 18-54 85-97 166-102z"/>
  <path fill="#739FFF" d="M274 204c-86 6-157 51-178 108l-1 12c18-54 85-97 166-102 59-4 115 43 146 88l8-31c-35-41-86-78-141-75z"/>
  <path fill="#fff2a0" d="m181 298 1-3c0-16-16-29-36-29l-7 1c-6-9-16-15-29-15-17 0-30 10-33 23-16 4-28 15-28 30 0 14 11 25 26 29 5 13 18 22 35 22 15 0 28-7 34-18l12 2c17 0 31-12 31-26 1-6-2-11-6-16z"/>
</svg>