<svg xmlns="http://www.w3.org/2000/svg" xml:space="preserve" viewBox="0 0 512 512">
  <circle cx="256" cy="255.91" r="255.91" fill="#ffd630"/>
  <path fill="#f5be18" d="M511.92 251.47 409.58 149.63l-1.48 71.19-66.74-67.07-113.7 104.8-111.4-111.4.33 8.58-8.57-8.57.33 7.08-7.09-7.08.33 8.9-8.57-8.57-3.3 41.85-.98 7.42 15.16 13.02.16 156.05 3.63 3.13-.17.17L250.4 512h5.6c141.39 0 255.92-114.53 255.92-255.92v-4.61z"/>
  <path fill="#fff" d="m402.33 147.82 1.49 107.77v.99h-2.64c-.99 0-1.65.66-1.65 1.48s.83 1.48 1.65 1.48h2.47l-4.45 91.63s-.66 9.88 11.54 12.52c0 0 9.06-2.3 10.54-11.7 1.32-8.24-3.79-76.46-4.94-92.45h3.46c.99 0 1.65-.66 1.65-1.48s-.83-1.48-1.65-1.48h-3.63v-.66s-1.8-8.4 10.71-12.36c0 0-6.42-67.73-11.37-83.05s-12.68-16.15-13.01-12.7h-.17z"/>
  <path fill="#e84f4f" d="M403.82 256.58h-2.64c-.99 0-1.65.66-1.65 1.48s.82 1.48 1.65 1.48h2.47l-4.45 91.63s-.66 9.88 11.54 12.52c0 0 9.06-2.3 10.54-11.7 1.32-8.24-3.79-76.46-4.94-92.45h3.46c.99 0 1.65-.66 1.65-1.48s-.83-1.48-1.65-1.48h-15.98z"/>
  <path fill="#fff" d="M108.18 147.16s2.31 36.75 2.31 44.65h4.62l-.5-44.16s.5-1.65 1.65-.33c0 0 5.93 40.54 5.93 45.65 0 0 .99 10.05-.33 13.68-1.32 3.62-13.84 11.7-13.84 14.66l-.5 21.26c2.64.83 4.45 2.8 4.45 4.78 0 2.14-1.48 3.8-4.28 4.78l4.12 7.41s2.3 73.5 3.62 86.85c-2.8 14.17-9.39 19.77-10.87 19.77-3.3-.16-9.72-10.54-10.88-18.95l4.29-87.34 3.62-7.41s-.5-.17-1.15-.5c-1.98-.98-3.3-2.63-3.3-4.44 0-1.98 1.65-3.8 3.96-4.62 0-1.48-.33-20.93-.5-21.26-.82-4.78-11.53-10.05-13.67-13.18-2.15-3.3-1-15.32-1-15.32 0-4.95 5.94-45.65 5.94-45.65 1.15-1.32 1.65.33 1.65.33l-.5 44.5h4.12c0-7.59 3.14-44.83 3.14-44.83 1.15-1.32 1.64 0 1.64 0l1.98 44.66h2.14l1-44.66s.65-1.32 1.64 0l-.5-.33z"/>
  <path fill="#e84f4f" d="m107.69 251.96 3.96 7.25s2.3 73.5 3.62 86.85c-2.8 14.17-9.4 19.77-10.88 19.77-3.3-.16-9.72-10.54-10.87-18.95l4.28-87.34 3.63-7.41h6.26v-.17z"/>
  <circle cx="258.31" cy="255.91" r="131.83" fill="#ff873d"/>
  <circle cx="258.31" cy="255.91" r="125.07" fill="#fff"/>
  <circle cx="258.31" cy="255.91" r="98.05" fill="#ffe8d1"/>
</svg>