<?xml version="1.0" standalone="no"?>
<!DOCTYPE svg PUBLIC "-//W3C//DTD SVG 20010904//EN"
 "http://www.w3.org/TR/2001/REC-SVG-20010904/DTD/svg10.dtd">
<svg version="1.0" xmlns="http://www.w3.org/2000/svg"
 width="128.000000pt" height="128.000000pt" viewBox="0 0 128.000000 128.000000"
 preserveAspectRatio="xMidYMid meet">

<g transform="translate(0.000000,128.000000) scale(0.100000,-0.100000)"
fill="#000000" stroke="none">
<path d="M1100 1145 l0 -75 -180 0 -180 0 0 -510 0 -510 -95 0 c-95 0 -95 0
-95 -25 l0 -25 120 0 120 0 0 510 0 510 180 0 180 0 0 100 0 100 -25 0 c-24 0
-25 -2 -25 -75z"/>
<path d="M180 1045 l0 -25 155 0 155 0 0 25 0 25 -155 0 -155 0 0 -25z"/>
</g>
</svg>
