<svg xmlns="http://www.w3.org/2000/svg" xml:space="preserve" viewBox="0 0 505 505">
  <circle cx="252.5" cy="252.5" r="252.5" fill="#ffd05b"/>
  <path fill="#e6e9ee" d="M258 230h-11c-31 0-55 30-52 64l6 55v3c4 27 26 48 52 48 13 0 25-6 34-15 9-8 15-20 17-33v-3l6-55c3-34-21-64-52-64z"/>
  <path fill="#ff7058" d="M436 426a252 252 0 0 1-367 0c33-37 80-64 132-74 4 28 26 48 51 48 14 0 26-6 35-15 9-8 15-20 17-33 53 11 99 37 132 74z"/>
  <path fill="#fff" d="M352 221c0 77-44 139-100 139-54 0-99-62-99-139 0-78 44-105 100-105 55 0 99 27 99 105z"/>
  <path fill="#2b3b4e" d="m261 315-1-16 79-3c13-1 25-9 32-21l13-26 14 7-13 26c-9 17-27 29-46 29l-78 4zM135 204v-1c0-76 39-114 118-114s118 38 118 114v1h21v-1c0-88-49-136-139-136-91 0-140 48-140 136v1h22z"/>
  <g fill="#54c0eb">
    <path d="M366 267h41c3 0 5-2 5-5v-70c0-3-2-6-5-6h-41l-2 2v77l2 2zm-227 0H98c-3 0-5-2-5-5v-70c0-3 2-6 5-6h41c2 0 2 1 2 2v77l-2 2z"/>
    <ellipse cx="260.2" cy="307.3" rx="26.4" ry="18.7"/>
  </g>
</svg>