<svg xmlns="http://www.w3.org/2000/svg" xml:space="preserve" viewBox="0 0 512 512">
  <circle cx="256" cy="256" r="256" fill="#ffd630"/>
  <path fill="#f5be18" d="M512 270a256 256 0 0 1-242 242L133 375l1-22-27-42-12-58 8-52 24-53 56-42 58-17 58 6 78 40 135 135z"/>
  <circle cx="256" cy="256" r="170.9" fill="#e84f4f"/>
  <circle cx="256" cy="256" r="149.5" fill="#00cc96"/>
  <path fill="#ffd630" d="M260 140c28 0 55 8 79 23l-46 47c-58-27-139-8-161 56 2-79 53-126 128-126z"/>
  <path fill="#055661" d="M297 281a40 40 0 1 1-33-23l89-93-56 116zm-34 1c8 0 15 6 15 15 0 8-7 15-15 15-9 0-15-7-15-15 0-9 6-15 15-15z"/>
</svg>